<?xml version="1.0" standalone="no"?>
<!DOCTYPE svg PUBLIC "-//W3C//DTD SVG 1.1//EN" "http://www.w3.org/Graphics/SVG/1.1/DTD/svg11.dtd" >
<svg>
<metadata>
Created by FontForge 20120731 at Thu Aug 18 21:49:07 2016
 By www
Copyright 1990-2001 as an unpublished work by Bitstream Inc.  All rights reserved.  Confidential.
</metadata>
<defs>
<font id="CharterBT-SmallCap" horiz-adv-x="532" >
  <font-face 
    font-family="Charter"
    font-weight="500"
    font-variant="small-caps"
    font-stretch="normal"
    units-per-em="1000"
    panose-1="0 0 0 0 0 0 0 0 0 0"
    ascent="800"
    descent="-200"
    x-height="490"
    bbox="-3 -223 785 781"
    underline-thickness="60"
    underline-position="-70"
    stemh="43"
    stemv="83"
    unicode-range="U+0020-00FF"
  />
<missing-glyph horiz-adv-x="278" 
 />
    <glyph glyph-name=".notdef" horiz-adv-x="278" 
 />
    <glyph glyph-name="space" unicode=" " horiz-adv-x="278" 
 />
    <glyph glyph-name="c313" unicode="!" horiz-adv-x="268" 
d="M175 398l-22 -274h-38l-23 274c-1 18 -2 32 -2 42c0 34 16 52 44 52s43 -18 43 -52c0 -9 0 -23 -2 -42zM133 76c25 0 46 -18 46 -41c0 -22 -20 -41 -46 -41c-25 0 -44 19 -44 41c0 23 19 41 44 41z" />
    <glyph glyph-name="c218" unicode="$" horiz-adv-x="556" 
d="M470 650v-156h-45l-15 93l-15 21c-20 8 -37 12 -51 14v-256c105 -34 154 -86 154 -174c0 -83 -54 -148 -154 -183v-111h-39v106l-48 -2v-104h-40v104c-66 5 -119 12 -159 23v168h46l18 -109l9 -13c24 -12 53 -19 86 -23v271c-92 28 -141 89 -141 170c0 79 51 143 141 170
v84h40v-74l48 2v72h39v-72c31 -2 73 -9 126 -21zM217 606c-38 -23 -56 -57 -56 -103c0 -38 21 -74 56 -93v196zM344 61c47 24 71 63 71 112c0 46 -24 83 -71 105v-217zM305 48v246l-48 13v-261zM305 626l-48 -3v-230l48 -13v246z" />
    <glyph glyph-name="c277" unicode="&#x26;" horiz-adv-x="620" 
d="M421 0v20l-28 30c-51 -39 -102 -58 -154 -58c-105 0 -176 65 -176 145c0 57 34 100 103 129c-43 37 -64 71 -64 110c0 67 63 122 157 122c84 0 139 -51 139 -115c0 -53 -38 -91 -115 -123l126 -124c19 26 32 51 38 76l-12 10l-46 7v35h176v-35l-58 -8
c-14 -44 -35 -83 -64 -119l59 -62l74 -4v-36h-155zM249 290c46 20 67 49 67 93c0 46 -26 75 -69 75c-38 0 -65 -28 -65 -66c0 -36 23 -66 67 -102zM360 82l-156 156c-35 -22 -53 -49 -53 -86c0 -63 44 -111 112 -111c35 0 67 14 97 41z" />
    <glyph glyph-name="c128" unicode="+" 
d="M513 0c-35 -30 -53 -69 -53 -106s20 -57 57 -57c9 0 19 2 32 4v-50c-18 -5 -34 -8 -50 -8c-64 0 -97 31 -97 88c0 47 23 91 68 129h-130v36l50 4l4 7l-57 138h-185l-55 -138l5 -7l54 -4v-36h-157v35l47 9l185 452h66l190 -452l48 -9v-35h-22zM245 407l-75 -181h151z" />
    <glyph glyph-name="c303" unicode="," horiz-adv-x="220" 
d="M31 -121v24c58 10 87 42 87 94v8h-50c-9 9 -13 19 -13 32c0 24 19 40 46 40c40 0 63 -26 63 -71c0 -63 -52 -119 -133 -127z" />
    <glyph glyph-name="c302" unicode="." horiz-adv-x="220" 
d="M110 85c29 0 50 -20 50 -46c0 -25 -22 -45 -50 -45c-27 0 -50 20 -50 45c0 26 22 46 50 46z" />
    <glyph glyph-name="c216" unicode="0" horiz-adv-x="572" 
d="M286 491c135 0 233 -102 233 -250s-99 -250 -233 -250s-233 102 -233 250c0 149 98 250 233 250zM285 447c-81 0 -137 -76 -137 -206c0 -129 57 -207 137 -207c81 0 139 77 139 207c0 129 -58 206 -139 206z" />
    <glyph glyph-name="c207" unicode="1" horiz-adv-x="398" 
d="M57 481h284v-35l-85 -5l-16 -17v-367l16 -16l85 -5v-36h-284v36l83 5l16 16v367l-16 17l-83 5v35z" />
    <glyph glyph-name="c208" unicode="2" horiz-adv-x="488" 
d="M42 0v65c182 127 280 207 280 300c0 65 -46 111 -105 111c-31 0 -58 -8 -85 -27l-9 -84h-54v118c49 29 102 44 159 44c114 0 183 -64 183 -158c0 -92 -103 -170 -285 -301c98 3 204 5 316 6v-74h-400z" />
    <glyph glyph-name="c209" unicode="3" horiz-adv-x="493" 
d="M269 186c111 0 172 -52 172 -140c0 -109 -99 -196 -253 -196c-47 0 -91 6 -133 20v130h45l10 -79c28 -16 61 -24 95 -24c87 0 144 55 144 138c0 71 -49 115 -135 115c-20 0 -42 -2 -67 -8v61c10 -1 19 -1 26 -1c92 0 143 47 143 127c0 68 -42 113 -103 113
c-26 0 -53 -8 -84 -25l-11 -83h-47v119c60 25 113 38 157 38c111 0 175 -56 175 -140c0 -69 -46 -129 -134 -165z" />
    <glyph glyph-name="c210" unicode="4" horiz-adv-x="507" 
d="M317 495h60v-378h95v-50h-95v-217h-81v217h-277v57zM296 390l-219 -273h219v273z" />
    <glyph glyph-name="c211" unicode="5" horiz-adv-x="458" 
d="M37 -134v131h41l13 -80c29 -17 60 -26 94 -26c88 0 148 63 148 144c0 93 -63 141 -184 141c-17 0 -44 -1 -80 -4v309h336v-71h-273v-188c31 7 60 11 89 11c124 0 202 -71 202 -173c0 -112 -111 -216 -258 -216c-39 0 -81 7 -128 22z" />
    <glyph glyph-name="c212" unicode="6" horiz-adv-x="558" 
d="M153 344c54 44 106 66 160 66c109 0 192 -84 192 -199c0 -124 -96 -221 -222 -221c-133 0 -220 100 -220 265c0 215 137 376 357 407l11 -56l-45 5c-133 -43 -213 -134 -233 -267zM151 300c-1 -20 -1 -36 -1 -48c0 -138 53 -218 134 -218c79 0 132 63 132 168
c0 94 -55 154 -136 154c-50 0 -93 -19 -129 -56z" />
    <glyph glyph-name="c213" unicode="7" horiz-adv-x="470" 
d="M46 481h403v-32l-289 -553v-51h-82l291 565h-268l-18 -81h-37v152z" />
    <glyph glyph-name="c214" unicode="8" horiz-adv-x="539" 
d="M319 347c42 27 67 75 67 131c0 73 -46 123 -109 123s-108 -45 -108 -105c0 -69 46 -107 150 -149zM353 331c90 -40 132 -88 132 -165c0 -98 -91 -180 -224 -180c-130 0 -208 73 -208 171c0 79 42 131 131 169c-67 40 -100 86 -100 149c0 93 84 169 198 169
c109 0 183 -68 183 -161c0 -62 -39 -116 -112 -152zM222 309c-60 -31 -87 -77 -87 -144c0 -79 55 -136 136 -136c79 0 130 51 130 127c0 67 -59 103 -179 153z" />
    <glyph glyph-name="c215" unicode="9" horiz-adv-x="562" 
d="M401 155c7 34 11 68 11 102c0 123 -51 190 -133 190c-74 0 -128 -63 -128 -161c0 -108 49 -167 135 -167c40 0 78 12 115 36zM141 -178l-29 57h51c115 57 193 139 229 234c-52 -30 -94 -48 -139 -48c-113 0 -194 84 -194 202c0 131 96 224 223 224
c135 0 219 -88 219 -233c0 -192 -122 -343 -360 -436z" />
    <glyph glyph-name="c304" unicode=":" horiz-adv-x="276" 
d="M138 347c28 0 50 -21 50 -46s-22 -46 -50 -46c-27 0 -50 21 -50 46s22 46 50 46zM138 85c29 0 50 -21 50 -46s-22 -45 -50 -45c-27 0 -50 20 -50 45c0 26 22 46 50 46z" />
    <glyph glyph-name="c305" unicode=";" horiz-adv-x="276" 
d="M133 347c28 0 51 -21 51 -46s-23 -46 -51 -46c-27 0 -50 21 -50 46s22 46 50 46zM58 -121v24c58 10 87 42 87 94v8h-51c-9 9 -12 19 -12 32c0 24 19 40 46 40c40 0 63 -26 63 -71c0 -62 -52 -119 -133 -127z" />
    <glyph glyph-name="c282" unicode="=" horiz-adv-x="491" 
d="M433 490v-112h-54l-13 64l-12 8h-170v-176h119l11 8l8 55h47v-165h-47l-8 55l-11 7h-119v-194h198l14 8l15 82h50v-130h-28c-35 -30 -53 -69 -53 -106s20 -57 57 -57c9 0 20 2 33 4v-50c-18 -5 -35 -8 -51 -8c-64 0 -98 31 -98 88c0 47 24 91 69 129h-350v36l49 4l10 7
v396l-10 7l-49 4v36h393z" />
    <glyph glyph-name="c312" unicode="?" horiz-adv-x="409" 
d="M179 208v-84h-41v105c76 26 114 68 114 128c0 63 -39 102 -109 102h-6l-31 -71c-5 -1 -10 -1 -15 -1c-30 0 -47 14 -47 38c0 35 44 67 116 67c102 0 164 -53 164 -130c0 -67 -48 -116 -145 -154zM158 76c26 0 46 -18 46 -41c0 -22 -20 -41 -46 -41c-25 0 -44 18 -44 41
s19 41 44 41z" />
    <glyph glyph-name="c251" unicode="a" 
d="M231 496h66l190 -452l48 -9v-35h-195v36l50 4l4 7l-57 138h-185l-55 -138l5 -7l54 -4v-36h-157v35l47 9zM245 407l-75 -181h151z" />
    <glyph glyph-name="c252" unicode="b" horiz-adv-x="521" 
d="M40 0v36l49 4l10 7v396l-10 7l-49 4v36h207c126 0 189 -40 189 -121c0 -51 -35 -90 -102 -107c86 -4 135 -50 135 -120c0 -86 -76 -142 -214 -142h-215zM184 43c17 -1 33 -2 48 -2c98 0 143 28 143 98c0 65 -39 94 -122 94c-18 0 -41 -1 -69 -4v-186zM184 271
c8 0 16 -1 24 -1c91 0 134 29 134 96c0 58 -40 85 -122 85c-8 0 -19 -1 -36 -2v-178z" />
    <glyph glyph-name="c253" unicode="c" horiz-adv-x="537" 
d="M486 18c-56 -18 -113 -27 -168 -27c-54 0 -101 10 -137 29c-89 46 -142 130 -142 225c0 149 112 253 282 253c49 0 104 -8 165 -26v-125h-52l-15 78l-11 11c-30 12 -60 17 -93 17c-105 0 -178 -78 -178 -208c0 -129 76 -209 201 -209c24 0 46 4 68 13l11 10l20 85h49
v-126z" />
    <glyph glyph-name="c254" unicode="d" horiz-adv-x="586" 
d="M241 490c193 0 299 -93 299 -245c0 -156 -104 -245 -299 -245h-201v36l49 4l10 7v396l-10 7l-49 4v36h201zM184 450v-410h54c139 0 207 68 207 205c0 138 -67 205 -207 205h-54z" />
    <glyph glyph-name="c255" unicode="e" horiz-adv-x="491" 
d="M433 490v-112h-54l-13 64l-12 8h-170v-176h119l11 8l8 55h47v-165h-47l-8 55l-11 7h-119v-194h198l14 8l15 82h50v-130h-421v36l49 4l10 7v396l-10 7l-49 4v36h393z" />
    <glyph glyph-name="c256" unicode="f" horiz-adv-x="477" 
d="M434 490v-120h-54l-13 72l-9 8h-168v-183h119l10 7l7 56h50v-165h-49l-8 55l-8 7h-121v-180l10 -7l59 -4v-36h-212v36l49 4l9 7v396l-9 7l-56 4v36h394z" />
    <glyph glyph-name="c257" unicode="g" horiz-adv-x="590" 
d="M410 192l-11 7l-63 4v36h213v-36l-47 -4l-9 -7v-174c-65 -18 -123 -27 -173 -27c-55 0 -101 11 -138 30c-89 46 -142 130 -142 224c0 152 112 254 292 254c51 0 105 -8 160 -23v-129h-55l-13 78l-10 11c-29 11 -59 17 -89 17c-116 0 -187 -77 -187 -208
c0 -127 76 -208 194 -208c21 0 47 3 78 8v147z" />
    <glyph glyph-name="c258" unicode="h" horiz-adv-x="625" 
d="M40 490h206v-36l-52 -4l-10 -8v-165h258v165l-10 8l-52 4v36h204v-36l-48 -4l-10 -8v-394l10 -8l48 -4v-36h-204v36l52 4l10 8v189h-258v-189l10 -8l52 -4v-36h-206v36l49 4l10 8v394l-10 8l-49 4v36z" />
    <glyph glyph-name="c259" unicode="i" horiz-adv-x="292" 
d="M252 490v-36l-54 -4l-9 -7v-396l9 -7l54 -4v-36h-212v36l54 4l10 7v396l-10 7l-54 4v36h212z" />
    <glyph glyph-name="c260" unicode="j" horiz-adv-x="417" 
d="M168 490h216v-36l-53 -4l-10 -7v-255c0 -133 -54 -197 -179 -197c-36 0 -74 6 -113 19v131h53l21 -99l11 -7c11 -1 20 -2 26 -2c72 0 96 49 96 152v258l-9 7l-59 4v36z" />
    <glyph glyph-name="c261" unicode="k" horiz-adv-x="556" 
d="M246 490v-36l-52 -4l-10 -7v-191h17l172 191l-3 7l-46 4v36h181v-36l-68 -7l-155 -171l181 -236l61 -4v-36h-147v25l-148 190h-45v-168l10 -7l52 -4v-36h-206v36l49 4l10 7v396l-10 7l-49 4v36h206z" />
    <glyph glyph-name="c262" unicode="l" horiz-adv-x="477" 
d="M103 443l-9 7l-54 4v36h207v-36l-49 -4l-9 -7v-403h165l13 8l14 96h52v-144h-393v36l54 4l9 7v396z" />
    <glyph glyph-name="c263" unicode="m" horiz-adv-x="725" 
d="M221 490v-24l135 -348l135 339v33h187v-36l-53 -4l-9 -7v-396l9 -7l53 -5v-35h-205v35l53 5l9 7v383l-172 -430h-44l-162 421v-369l14 -10l50 -7v-35h-180v35l50 7l14 10v391l-10 7l-55 4v36h181z" />
    <glyph glyph-name="c264" unicode="n" horiz-adv-x="590" 
d="M444 122v315l-11 11l-51 6v36h173v-36l-50 -6l-11 -11v-385l38 -52h-95l-287 390v-338l11 -10l51 -7v-35h-176v35l51 7l11 10v391l-10 7l-55 4v36h158v-22z" />
    <glyph glyph-name="c265" unicode="o" horiz-adv-x="606" 
d="M303 502c153 0 263 -107 263 -257c0 -151 -109 -257 -263 -257s-263 106 -263 257c0 150 110 257 263 257zM303 456c-98 0 -164 -79 -164 -211c0 -131 67 -211 164 -211c98 0 165 80 165 211c0 130 -67 211 -165 211z" />
    <glyph glyph-name="c266" unicode="p" horiz-adv-x="491" 
d="M226 490c154 0 228 -41 228 -146c0 -98 -79 -162 -212 -162c-14 0 -32 0 -52 2v-137l10 -7l59 -4v-36h-212v36l49 4l9 7v396l-9 7l-56 4v36h186zM190 226c21 -2 37 -3 46 -3c84 0 128 41 128 118c0 74 -44 109 -136 109c-12 0 -24 -1 -38 -2v-222z" />
    <glyph glyph-name="c267" unicode="q" horiz-adv-x="625" 
d="M349 -6c2 -52 36 -80 98 -80c20 0 45 3 77 9v-37c-40 -9 -76 -13 -109 -13c-103 0 -154 40 -155 121c-136 21 -220 118 -220 252c0 150 110 256 264 256c153 0 263 -106 263 -256c0 -133 -83 -230 -218 -252zM304 35c98 0 165 81 165 211s-67 210 -165 210
s-165 -78 -165 -210c0 -130 67 -211 165 -211z" />
    <glyph glyph-name="c268" unicode="r" horiz-adv-x="539" 
d="M40 490h208c133 0 199 -44 199 -133c0 -60 -42 -102 -123 -120c80 -19 86 -67 104 -127c19 -61 35 -75 102 -75h16v-33c-27 -5 -51 -8 -71 -8c-85 0 -110 34 -136 120c-23 76 -43 102 -120 102c-10 0 -22 0 -35 -1v-168l10 -7l49 -4v-36h-203v36l49 4l10 7v396l-10 7
l-49 4v36zM184 450v-194c13 -1 25 -1 37 -1c89 0 130 28 130 96c0 74 -45 99 -137 99h-30z" />
    <glyph glyph-name="c269" unicode="s" horiz-adv-x="458" 
d="M46 16v137h57l11 -91l8 -11c30 -10 58 -15 85 -15c73 0 113 33 113 83c0 55 -46 69 -128 101c-91 36 -137 63 -137 135c0 84 71 143 189 143c47 0 96 -7 144 -22v-122h-53l-13 77l-10 11c-23 9 -45 13 -68 13c-63 0 -100 -33 -100 -82c0 -43 35 -61 105 -88
c42 -16 85 -27 123 -60c24 -21 37 -50 37 -84c0 -87 -81 -149 -213 -149c-59 0 -109 8 -150 24z" />
    <glyph glyph-name="c270" unicode="t" horiz-adv-x="509" 
d="M101 450l-10 -8l-14 -76h-52v124h459v-124h-52l-13 76l-11 8h-111v-403l9 -7l57 -4v-36h-217v36l56 4l10 7v403h-111z" />
    <glyph glyph-name="c271" unicode="u" horiz-adv-x="600" 
d="M241 490v-36l-56 -4l-10 -7v-261c0 -96 39 -139 139 -139c101 0 138 43 138 139v255l-11 11l-54 6v36h179v-36l-50 -6l-11 -11v-261c0 -127 -61 -184 -207 -184c-145 0 -206 57 -206 184v267l-10 7l-49 4v36h208z" />
    <glyph glyph-name="c272" unicode="v" horiz-adv-x="535" 
d="M236 -3l-186 449l-51 8v36h200v-36l-49 -4l-6 -7l147 -353l142 353l-5 7l-52 4v36h160v-36l-51 -8l-182 -449h-67z" />
    <glyph glyph-name="c273" unicode="w" horiz-adv-x="756" 
d="M185 0l-133 445l-50 10v35h193v-35l-52 -6l-5 -7l102 -338l129 386h53l128 -386l95 334l-6 8l-56 9v35h167v-35l-54 -10l-126 -445h-67l-127 373l-124 -373h-67z" />
    <glyph glyph-name="c274" unicode="x" horiz-adv-x="539" 
d="M16 0v35l62 10l153 196l-146 205l-54 9v35h207v-35l-49 -5l-4 -6l97 -138l104 133l-7 9l-48 7v35h178v-35l-57 -8l-142 -180l155 -223l56 -9v-35h-217v35l55 6l4 7l-105 154l-117 -150l5 -12l55 -5v-35h-185z" />
    <glyph glyph-name="c275" unicode="y" horiz-adv-x="521" 
d="M299 47l9 -7l57 -4v-36h-221v36l58 4l9 7v153l-155 247l-51 8v35h200v-35l-49 -5l-4 -5l121 -192l127 186l-6 8l-50 8v35h167v-35l-54 -9l-158 -232v-167z" />
    <glyph glyph-name="c276" unicode="z" horiz-adv-x="525" 
d="M56 0v33l297 415h-200l-14 -7l-14 -75h-51v124h385v-34l-298 -414h226l8 6l15 96h53v-144h-407z" />
    <glyph glyph-name="c306" horiz-adv-x="171" 
d="M103 513h34c-42 -43 -63 -78 -63 -111c0 -5 1 -11 2 -16h51c7 -9 10 -17 10 -25c0 -25 -18 -43 -47 -43c-37 0 -62 27 -62 67c0 41 24 84 75 128z" />
    <glyph glyph-name="c308" horiz-adv-x="171" 
d="M59 318h-34c42 42 63 77 63 110c0 6 -1 12 -2 18h-51c-7 9 -10 18 -10 25c0 24 19 43 47 43c37 0 62 -27 62 -67c0 -41 -25 -85 -75 -129z" />
    <glyph glyph-name="c307" horiz-adv-x="330" 
d="M103 513h34c-42 -43 -63 -78 -63 -111c0 -5 1 -11 2 -16h51c7 -9 10 -17 10 -25c0 -25 -18 -43 -47 -43c-37 0 -62 27 -62 67c0 41 24 84 75 128zM263 513h34c-42 -42 -64 -78 -64 -111c0 -5 1 -11 2 -16h51c7 -9 10 -17 10 -25c0 -25 -18 -43 -47 -43
c-37 0 -62 27 -62 67c0 41 25 84 76 128z" />
    <glyph glyph-name="c309" horiz-adv-x="330" 
d="M59 318h-34c42 42 63 77 63 110c0 6 -1 12 -2 18h-51c-7 9 -10 18 -10 25c0 24 19 43 47 43c37 0 62 -27 62 -67c0 -41 -25 -85 -75 -129zM218 318h-34c42 42 63 78 63 112c0 5 -1 11 -2 16h-51c-7 9 -10 17 -10 25c0 25 18 43 47 43c37 0 62 -27 62 -67
c0 -41 -24 -85 -75 -129z" />
    <glyph glyph-name="c3702" horiz-adv-x="458" 
d="M46 16v137h57l11 -91l8 -11c30 -10 58 -15 85 -15c73 0 113 33 113 83c0 55 -46 69 -128 101c-91 36 -137 63 -137 135c0 84 71 143 189 143c47 0 96 -7 144 -22v-122h-53l-13 77l-10 11c-23 9 -45 13 -68 13c-63 0 -100 -33 -100 -82c0 -43 35 -61 105 -88
c42 -16 85 -27 123 -60c24 -21 37 -50 37 -84c0 -87 -81 -149 -213 -149c-59 0 -109 8 -150 24zM94 747h55l87 -141l88 141h54l-110 -190h-64z" />
    <glyph glyph-name="c279" horiz-adv-x="840" 
d="M757 490v-112h-54l-13 64l-12 8h-151v-176h100l11 8l9 55h47v-165h-48l-8 55l-11 7h-100v-194h179l14 8l15 82h50v-130h-341v69c-34 -48 -91 -75 -160 -75c-141 0 -243 102 -243 251c0 148 102 250 242 250c71 0 122 -20 161 -69v64h313zM292 39c90 0 153 78 153 206
c0 127 -63 206 -153 206s-152 -76 -152 -206c0 -128 63 -206 152 -206z" />
    <glyph glyph-name="c283" unicode="&#xa5;" horiz-adv-x="562" 
d="M35 0v36l54 4l10 7v396l-10 7l-54 4v36h213v-36l-54 -4l-10 -7v-396l10 -7l45 -4v-36h-204zM259 1l-1 36c14 -2 27 -3 39 -3c81 0 109 46 109 151v258l-9 7l-57 4v36h213v-36l-52 -4l-10 -7v-252c0 -131 -54 -195 -175 -195c-16 0 -35 2 -57 5z" />
    <glyph glyph-name="c284" unicode="&#xb1;" horiz-adv-x="467" 
d="M103 204l-57 -35l-19 28l76 47v199l-9 7l-54 4v36h208v-36l-49 -4l-10 -7v-146l74 45l21 -27l-95 -58v-217h165l8 8l14 90h57v-138h-393v36l54 4l9 7v157z" />
    <glyph glyph-name="c2565" unicode="&#xdb;" horiz-adv-x="525" 
d="M56 0v33l297 415h-200l-14 -7l-14 -75h-51v124h385v-34l-298 -414h226l8 6l15 96h53v-144h-407zM132 747h55l87 -141l88 141h54l-110 -190h-64z" />
    <glyph glyph-name="c4326" unicode="&#xe0;" 
d="M231 496h66l190 -452l48 -9v-35h-195v36l50 4l4 7l-57 138h-185l-55 -138l5 -7l54 -4v-36h-157v35l47 9zM245 407l-75 -181h151zM120 747h99l97 -190h-50z" />
    <glyph glyph-name="c4336" unicode="&#xe1;" 
d="M231 496h66l190 -452l48 -9v-35h-195v36l50 4l4 7l-57 138h-185l-55 -138l5 -7l54 -4v-36h-157v35l47 9zM245 407l-75 -181h151zM325 747h99l-146 -190h-50z" />
    <glyph glyph-name="c4316" unicode="&#xe2;" 
d="M231 496h66l190 -452l48 -9v-35h-195v36l50 4l4 7l-57 138h-185l-55 -138l5 -7l54 -4v-36h-157v35l47 9zM245 407l-75 -181h151zM234 747h64l110 -190h-54l-88 141l-87 -141h-55z" />
    <glyph glyph-name="c4296" unicode="&#xe3;" 
d="M231 496h66l190 -452l48 -9v-35h-195v36l50 4l4 7l-57 138h-185l-55 -138l5 -7l54 -4v-36h-157v35l47 9zM245 407l-75 -181h151zM377 719h41c0 -5 1 -10 1 -14c0 -66 -37 -106 -84 -106c-61 0 -114 50 -144 50c-21 0 -36 -19 -36 -53c0 -4 1 -8 1 -12h-43v10
c0 73 31 110 85 110c55 0 105 -52 140 -52c26 0 39 20 39 62v5z" />
    <glyph glyph-name="c4306" unicode="&#xe4;" 
d="M231 496h66l190 -452l48 -9v-35h-195v36l50 4l4 7l-57 138h-185l-55 -138l5 -7l54 -4v-36h-157v35l47 9zM245 407l-75 -181h151zM173 702c28 0 50 -23 50 -51s-22 -50 -50 -50s-51 22 -51 50c0 29 22 51 51 51zM359 702c28 0 50 -23 50 -51s-22 -50 -50 -50
s-51 22 -51 50c0 29 22 51 51 51z" />
    <glyph glyph-name="c5593" unicode="&#xe5;" 
d="M231 496h66l190 -452l48 -9v-35h-195v35l50 5l4 7l-57 138h-185l-55 -138l5 -7l54 -5v-35h-157v35l47 9zM245 407l-75 -181h151zM257 781c66 0 117 -51 117 -117s-51 -118 -117 -118s-118 52 -118 118s52 117 118 117zM257 737c-40 0 -73 -33 -73 -74
c0 -40 33 -72 73 -72c41 0 73 32 73 72c0 41 -32 74 -73 74z" />
    <glyph glyph-name="c278" unicode="&#xe6;" horiz-adv-x="759" 
d="M320 0v36l49 4l9 7v139h-182l-96 -139l3 -6l52 -5v-36h-158v36l47 7l274 400l-5 6l-47 5v36h425v-112h-54l-14 64l-11 8h-150v-176h97l12 7l9 56h48v-165h-49l-8 55l-12 7h-97v-194h179l13 8l14 82h51v-130h-399zM223 226h155v228z" />
    <glyph glyph-name="c1407" unicode="&#xe7;" horiz-adv-x="537" 
d="M486 18c-56 -18 -113 -27 -168 -27c-54 0 -101 10 -137 29c-89 46 -142 130 -142 225c0 149 112 253 282 253c49 0 104 -8 165 -26v-125h-52l-15 78l-11 11c-30 12 -60 17 -93 17c-105 0 -178 -78 -178 -208c0 -129 76 -209 201 -209c24 0 46 4 68 13l11 10l20 85h49
v-126zM272 0h37v-61c7 1 13 1 19 1c48 0 76 -27 76 -72c0 -55 -44 -91 -118 -91c-20 0 -43 3 -69 10v36c18 -5 37 -8 59 -8c42 0 67 17 67 43c0 23 -18 37 -50 37c-7 0 -14 -1 -21 -2v107z" />
    <glyph glyph-name="c4276" unicode="&#xe8;" horiz-adv-x="491" 
d="M433 490v-112h-54l-13 64l-12 8h-170v-176h119l11 8l8 55h47v-165h-47l-8 55l-11 7h-119v-194h198l14 8l15 82h50v-130h-421v36l49 4l10 7v396l-10 7l-49 4v36h393zM100 747h99l97 -190h-50z" />
    <glyph glyph-name="c4286" unicode="&#xe9;" horiz-adv-x="491" 
d="M433 490v-112h-54l-13 64l-12 8h-170v-176h119l11 8l8 55h47v-165h-47l-8 55l-11 7h-119v-194h198l14 8l15 82h50v-130h-421v36l49 4l10 7v396l-10 7l-49 4v36h393zM305 747h99l-146 -190h-50z" />
    <glyph glyph-name="c4266" unicode="&#xea;" horiz-adv-x="491" 
d="M433 490v-112h-54l-13 64l-12 8h-170v-176h119l11 8l8 55h47v-165h-47l-8 55l-11 7h-119v-194h198l14 8l15 82h50v-130h-421v36l49 4l10 7v396l-10 7l-49 4v36h393zM214 747h64l110 -190h-54l-88 141l-87 -141h-55z" />
    <glyph glyph-name="c4256" unicode="&#xeb;" horiz-adv-x="491" 
d="M433 490v-112h-54l-13 64l-12 8h-170v-176h119l11 8l8 55h47v-165h-47l-8 55l-11 7h-119v-194h198l14 8l15 82h50v-130h-421v36l49 4l10 7v396l-10 7l-49 4v36h393zM153 702c28 0 50 -23 50 -51s-22 -50 -50 -50s-51 22 -51 50c0 29 22 51 51 51zM339 702
c28 0 50 -23 50 -51s-22 -50 -50 -50s-51 22 -51 50c0 29 22 51 51 51z" />
    <glyph glyph-name="c4216" unicode="&#xec;" horiz-adv-x="292" 
d="M252 490v-36l-54 -4l-9 -7v-396l9 -7l54 -4v-36h-212v36l54 4l10 7v396l-10 7l-54 4v36h212zM0 747h99l97 -190h-50z" />
    <glyph glyph-name="c4226" unicode="&#xed;" horiz-adv-x="292" 
d="M252 490v-36l-54 -4l-9 -7v-396l9 -7l54 -4v-36h-212v36l54 4l10 7v396l-10 7l-54 4v36h212zM205 747h99l-146 -190h-50z" />
    <glyph glyph-name="c4206" unicode="&#xee;" horiz-adv-x="292" 
d="M252 490v-36l-54 -4l-9 -7v-396l9 -7l54 -4v-36h-212v36l54 4l10 7v396l-10 7l-54 4v36h212zM114 747h64l110 -190h-54l-88 141l-87 -141h-55z" />
    <glyph glyph-name="c4196" unicode="&#xef;" horiz-adv-x="292" 
d="M252 490v-36l-54 -4l-9 -7v-396l9 -7l54 -4v-36h-212v36l54 4l10 7v396l-10 7l-54 4v36h212zM53 702c28 0 50 -23 50 -51s-22 -50 -50 -50s-51 22 -51 50c0 29 22 51 51 51zM239 702c28 0 50 -23 50 -51s-22 -50 -50 -50s-51 22 -51 50c0 29 22 51 51 51z" />
    <glyph glyph-name="c281" unicode="&#xf0;" horiz-adv-x="586" 
d="M243 490c192 0 297 -93 297 -245c0 -156 -103 -245 -297 -245h-202v36l49 4l9 7v188h-72v35h72v173l-9 7l-49 4v36h202zM184 450v-180h127v-35h-127v-195h54c139 0 208 68 208 205c0 138 -68 205 -208 205h-54z" />
    <glyph glyph-name="c2323" unicode="&#xf1;" horiz-adv-x="590" 
d="M444 122v315l-11 11l-51 6v36h173v-36l-50 -6l-11 -11v-385l38 -52h-95l-287 390v-338l11 -10l51 -7v-35h-176v35l51 7l11 10v391l-10 7l-55 4v36h158v-22zM406 719h41c0 -5 1 -10 1 -14c0 -66 -37 -106 -84 -106c-61 0 -114 50 -144 50c-21 0 -36 -19 -36 -53
c0 -4 1 -8 1 -12h-43v10c0 73 31 110 85 110c55 0 105 -52 140 -52c26 0 39 20 39 62v5z" />
    <glyph glyph-name="c2353" unicode="&#xf2;" horiz-adv-x="606" 
d="M303 502c153 0 263 -107 263 -257c0 -151 -109 -257 -263 -257s-263 106 -263 257c0 150 110 257 263 257zM303 456c-98 0 -164 -79 -164 -211c0 -131 67 -211 164 -211c98 0 165 80 165 211c0 130 -67 211 -165 211zM157 747h99l97 -190h-50z" />
    <glyph glyph-name="c2343" unicode="&#xf3;" horiz-adv-x="606" 
d="M303 502c153 0 263 -107 263 -257c0 -151 -109 -257 -263 -257s-263 106 -263 257c0 150 110 257 263 257zM303 456c-98 0 -164 -79 -164 -211c0 -131 67 -211 164 -211c98 0 165 80 165 211c0 130 -67 211 -165 211zM362 747h99l-146 -190h-50z" />
    <glyph glyph-name="c2363" unicode="&#xf4;" horiz-adv-x="606" 
d="M303 502c153 0 263 -107 263 -257c0 -151 -109 -257 -263 -257s-263 106 -263 257c0 150 110 257 263 257zM303 456c-98 0 -164 -79 -164 -211c0 -131 67 -211 164 -211c98 0 165 80 165 211c0 130 -67 211 -165 211zM271 747h64l110 -190h-54l-88 141l-87 -141h-55z" />
    <glyph glyph-name="c2383" unicode="&#xf5;" horiz-adv-x="606" 
d="M303 502c153 0 263 -107 263 -257c0 -151 -109 -257 -263 -257s-263 106 -263 257c0 150 110 257 263 257zM303 456c-98 0 -164 -79 -164 -211c0 -131 67 -211 164 -211c98 0 165 80 165 211c0 130 -67 211 -165 211zM414 719h41c0 -5 1 -10 1 -14
c0 -66 -37 -106 -84 -106c-61 0 -114 50 -144 50c-21 0 -36 -19 -36 -53c0 -4 1 -8 1 -12h-43v10c0 73 31 110 85 110c55 0 105 -52 140 -52c26 0 39 20 39 62v5z" />
    <glyph glyph-name="c2373" unicode="&#xf6;" horiz-adv-x="606" 
d="M303 502c153 0 263 -107 263 -257c0 -151 -109 -257 -263 -257s-263 106 -263 257c0 150 110 257 263 257zM303 456c-98 0 -164 -79 -164 -211c0 -131 67 -211 164 -211c98 0 165 80 165 211c0 130 -67 211 -165 211zM210 702c28 0 50 -23 50 -51s-22 -50 -50 -50
s-51 22 -51 50c0 29 22 51 51 51zM396 702c28 0 50 -23 50 -51s-22 -50 -50 -50s-51 22 -51 50c0 29 22 51 51 51z" />
    <glyph glyph-name="c250" unicode="&#xf8;" horiz-adv-x="606" 
d="M87 -36l50 77c-64 49 -97 118 -97 204c0 149 110 256 263 256c43 0 82 -8 121 -25l47 70l36 -22l-46 -69c69 -50 105 -118 105 -210c0 -150 -109 -257 -262 -257c-47 0 -91 10 -132 31l-51 -77zM177 100l217 328c-26 19 -55 28 -90 28c-99 0 -165 -79 -165 -211
c0 -54 13 -103 38 -145zM206 69c27 -26 57 -36 97 -36c98 0 165 81 165 212c0 61 -15 112 -45 153z" />
    <glyph glyph-name="c2415" unicode="&#xf9;" horiz-adv-x="600" 
d="M241 490v-36l-56 -4l-10 -7v-261c0 -96 39 -139 139 -139c101 0 138 43 138 139v255l-11 11l-54 6v36h179v-36l-50 -6l-11 -11v-261c0 -127 -61 -184 -207 -184c-145 0 -206 57 -206 184v267l-10 7l-49 4v36h208zM154 747h99l97 -190h-50z" />
    <glyph glyph-name="c2405" unicode="&#xfa;" horiz-adv-x="600" 
d="M241 490v-36l-56 -4l-10 -7v-261c0 -96 39 -139 139 -139c101 0 138 43 138 139v255l-11 11l-54 6v36h179v-36l-50 -6l-11 -11v-261c0 -127 -61 -184 -207 -184c-145 0 -206 57 -206 184v267l-10 7l-49 4v36h208zM359 747h99l-146 -190h-50z" />
    <glyph glyph-name="c2425" unicode="&#xfb;" horiz-adv-x="600" 
d="M241 490v-36l-56 -4l-10 -7v-261c0 -96 39 -139 139 -139c101 0 138 43 138 139v255l-11 11l-54 6v36h179v-36l-50 -6l-11 -11v-261c0 -127 -61 -184 -207 -184c-145 0 -206 57 -206 184v267l-10 7l-49 4v36h208zM268 747h64l110 -190h-54l-88 141l-87 -141h-55z" />
    <glyph glyph-name="c2435" unicode="&#xfc;" horiz-adv-x="600" 
d="M241 490v-36l-56 -4l-10 -7v-261c0 -96 39 -139 139 -139c101 0 138 43 138 139v255l-11 11l-54 6v36h179v-36l-50 -6l-11 -11v-261c0 -127 -61 -184 -207 -184c-145 0 -206 57 -206 184v267l-10 7l-49 4v36h208zM207 702c28 0 50 -23 50 -51s-22 -50 -50 -50
s-51 22 -51 50c0 29 22 51 51 51zM393 702c28 0 50 -23 50 -51s-22 -50 -50 -50s-51 22 -51 50c0 29 22 51 51 51z" />
    <glyph glyph-name="c2475" unicode="&#xfd;" horiz-adv-x="521" 
d="M299 47l9 -7l57 -4v-36h-221v36l58 4l9 7v153l-155 247l-51 8v35h200v-35l-49 -5l-4 -5l121 -192l127 186l-6 8l-50 8v35h167v-35l-54 -9l-158 -232v-167zM320 747h99l-146 -190h-50z" />
    <glyph glyph-name="c287" unicode="&#xfe;" horiz-adv-x="481" 
d="M189 47l11 -7l52 -4v-36h-212v36l54 4l10 7v396l-10 7l-54 4v36h212v-36l-54 -4l-9 -7v-44h37c154 0 228 -41 228 -146c0 -98 -79 -162 -212 -162c-17 0 -35 0 -53 2v-46zM189 135c20 -2 35 -3 46 -3c85 0 129 41 129 118c0 75 -44 109 -136 109c-12 0 -25 -1 -39 -2
v-222z" />
    <glyph glyph-name="c2465" unicode="&#xff;" horiz-adv-x="521" 
d="M299 47l9 -7l57 -4v-36h-221v36l58 4l9 7v153l-155 247l-51 8v35h200v-35l-49 -5l-4 -5l121 -192l127 186l-6 8l-50 8v35h167v-35l-54 -9l-158 -232v-167zM168 702c28 0 50 -23 50 -51s-22 -50 -50 -50s-51 22 -51 50c0 29 22 51 51 51zM354 702c28 0 50 -23 50 -51
s-22 -50 -50 -50s-51 22 -51 50c0 29 22 51 51 51z" />
  </font>
</defs>
</svg>
