<?xml version="1.0" standalone="no"?>
<!DOCTYPE svg PUBLIC "-//W3C//DTD SVG 1.1//EN" "http://www.w3.org/Graphics/SVG/1.1/DTD/svg11.dtd" >
<svg>
<metadata>
Created by FontForge 20120731 at Sun Oct 16 13:48:21 2016
 By www
URW Software, Copyright 1994 by URW
</metadata>
<defs>
<font id="CharterITC-Regu" horiz-adv-x="500" >
  <font-face 
    font-family="Charter ITC"
    font-weight="500"
    font-stretch="normal"
    units-per-em="1000"
    panose-1="0 0 0 0 0 0 0 0 0 0"
    ascent="800"
    descent="-200"
    x-height="481"
    cap-height="671"
    bbox="-152 -236 1193 966"
    underline-thickness="58"
    underline-position="-80"
    stemh="44"
    stemv="83"
    unicode-range="U+0020-FB02"
  />
<missing-glyph horiz-adv-x="222" 
 />
    <glyph glyph-name=".notdef" horiz-adv-x="222" 
 />
    <glyph glyph-name="space" unicode=" " horiz-adv-x="222" 
 />
    <glyph glyph-name="exclam" unicode="!" horiz-adv-x="338" 
d="M145 171l-28 382l-1 14c-2 21 -2 28 -2 40c0 52 18 76 55 76c36 0 55 -25 55 -72c0 -16 -1 -32 -3 -58l-28 -382h-48zM170 105c31 0 56 -26 56 -57s-25 -57 -57 -57s-57 25 -57 57s25 57 58 57z" />
    <glyph glyph-name="quotedbl" unicode="&#x22;" horiz-adv-x="332" 
d="M93 422h-16l-32 223l-1 21c0 30 15 48 41 48c25 0 42 -18 42 -44c0 -7 -1 -18 -2 -25zM254 422h-16l-32 223c-1 6 -1 12 -1 18c0 33 15 51 41 51c25 0 42 -18 42 -45c0 -6 -1 -18 -2 -24z" />
    <glyph glyph-name="numbersign" unicode="#" horiz-adv-x="746" 
d="M371 710l47 -18l-79 -222h154l80 239l47 -17l-78 -222h139v-47h-155l-49 -146h163v-47h-179l-84 -253l-47 16l80 237h-153l-83 -253l-47 16l82 237h-144v47h159l48 146h-158v47h174zM324 423l-49 -146h149l51 146h-151z" />
    <glyph glyph-name="dollar" unicode="$" horiz-adv-x="556" 
d="M259 743h43v-71c47 1 109 -7 168 -22v-156h-45l-15 93l-15 21c-34 12 -58 17 -93 17v-245c142 -40 196 -91 196 -185c0 -101 -69 -169 -196 -195v-102h-43v102c-85 3 -143 11 -201 25v168h46l18 -109l9 -13c42 -18 73 -24 128 -25v260c-127 34 -183 89 -183 182
c0 95 68 162 183 181v74zM259 392v230c-66 -17 -98 -55 -98 -115c0 -57 32 -95 98 -115zM302 294v-244c74 15 113 58 113 123c0 60 -33 95 -113 121z" />
    <glyph glyph-name="percent" unicode="%" horiz-adv-x="852" 
d="M183 683c91 0 148 -81 148 -210s-57 -209 -150 -209s-150 79 -150 208c0 133 56 211 152 211zM179 647c-50 0 -77 -61 -77 -174c0 -114 26 -173 77 -173c53 0 81 60 81 173c0 114 -28 174 -81 174zM608 671h61l-428 -671h-60zM673 407c91 0 148 -81 148 -210
c0 -130 -57 -209 -150 -209s-150 79 -150 209c0 132 57 210 152 210zM669 371c-50 0 -77 -61 -77 -174c0 -114 26 -173 77 -173c53 0 81 60 81 173c0 114 -28 174 -81 174z" />
    <glyph glyph-name="ampersand" unicode="&#x26;" horiz-adv-x="704" 
d="M311 357l172 -186c33 47 45 74 56 118l-18 19l-55 8v41h203v-41l-72 -10c-22 -70 -43 -113 -83 -170l78 -90l91 -5v-41h-176v24l-45 50c-76 -62 -130 -86 -198 -86c-121 0 -211 84 -211 197c0 81 36 131 132 179c-65 68 -82 101 -82 154c0 94 79 165 184 165
c100 0 171 -64 171 -155c0 -73 -38 -117 -147 -171zM276 390c69 34 98 73 98 136c0 68 -37 111 -97 111c-54 0 -94 -41 -94 -97c0 -49 22 -84 93 -150zM431 108l-208 227c-58 -42 -78 -76 -78 -131c0 -91 62 -156 151 -156c48 0 89 18 135 60z" />
    <glyph glyph-name="quoteright" unicode="&#x2019;" horiz-adv-x="201" 
d="M74 442h-43c59 70 80 109 80 151c0 6 0 11 -2 26h-64c-10 15 -13 23 -13 36c0 34 25 58 61 58c45 0 77 -37 77 -89c0 -62 -25 -110 -96 -182z" />
    <glyph glyph-name="parenleft" unicode="(" horiz-adv-x="417" 
d="M386 718v-42c-136 -28 -195 -145 -195 -391c0 -241 60 -358 195 -385v-42c-178 19 -280 176 -280 429c0 255 99 407 280 431z" />
    <glyph glyph-name="parenright" unicode=")" horiz-adv-x="417" 
d="M31 676v42c181 -24 280 -176 280 -431c0 -253 -102 -409 -280 -429v42c135 27 195 144 195 386c0 245 -58 362 -195 390z" />
    <glyph glyph-name="asterisk" unicode="*" 
d="M250 718l39 -61l-32 -125h-14l-32 125zM377 589l69 -18l-45 -56l-128 -8l-4 13zM266 491l99 -81l4 -72l-67 26l-47 120zM234 491l10 -7l-47 -121l-67 -25l4 72zM123 589l109 -70l-4 -12l-129 8l-45 56z" />
    <glyph glyph-name="plus" unicode="+" horiz-adv-x="833" 
d="M387 269h-263v58h263v269h58v-269h264v-58h-264v-269h-58v269z" />
    <glyph glyph-name="comma" unicode="," horiz-adv-x="278" 
d="M39 -169v33c78 16 113 61 110 143h-64c-12 14 -16 25 -16 43c0 34 24 56 60 56c48 0 79 -38 79 -96c0 -61 -31 -117 -82 -149c-24 -16 -47 -24 -87 -30z" />
    <glyph glyph-name="hyphen" unicode="-" horiz-adv-x="319" 
d="M47 274h225v-67h-225v67z" />
    <glyph glyph-name="period" unicode="." horiz-adv-x="279" 
d="M141 118c34 0 62 -29 62 -64s-28 -63 -63 -63s-64 28 -64 63c0 36 29 64 65 64z" />
    <glyph glyph-name="slash" unicode="/" horiz-adv-x="481" 
d="M399 671h60l-427 -764h-60z" />
    <glyph glyph-name="zero" unicode="0" horiz-adv-x="556" 
d="M281 683c144 0 234 -134 234 -347c0 -216 -90 -348 -237 -348s-237 132 -237 346c0 220 89 349 240 349zM276 635c-91 0 -140 -105 -140 -300s49 -299 142 -299s142 103 142 301c0 196 -49 298 -144 298z" />
    <glyph glyph-name="one" unicode="1" horiz-adv-x="556" 
d="M316 683h30v-622l12 -15l112 -5v-41h-348v43l119 5l12 18v537l-163 -27v42z" />
    <glyph glyph-name="two" unicode="2" horiz-adv-x="556" 
d="M141 79h301l18 85h45v-164h-463v63c159 132 159 132 205 176c102 99 139 166 139 250c0 87 -52 143 -133 143c-32 0 -57 -7 -89 -24v-107c-15 -11 -29 -15 -46 -15c-33 0 -55 22 -55 55c0 78 96 142 213 142c124 0 207 -74 207 -185c0 -77 -39 -148 -134 -241
c-45 -45 -71 -67 -208 -178z" />
    <glyph glyph-name="three" unicode="3" horiz-adv-x="556" 
d="M153 603v-94c-13 -9 -23 -13 -39 -13c-34 0 -56 21 -56 54c0 72 96 133 210 133c119 0 198 -66 198 -166c0 -81 -46 -132 -149 -164c112 -10 175 -67 175 -160c0 -118 -107 -205 -252 -205c-107 0 -199 52 -199 111c0 30 24 51 57 51c10 0 18 -1 29 -5l31 -85
c33 -18 55 -24 85 -24c90 0 158 67 158 157c0 79 -54 126 -144 126c-14 0 -23 -1 -58 -4v59h13h16c93 0 147 48 147 129c0 78 -50 129 -127 129c-36 0 -64 -8 -95 -29z" />
    <glyph glyph-name="four" unicode="4" horiz-adv-x="556" 
d="M368 677h58v-418h113v-65h-113v-231h-77v231h-322v65zM349 568l-247 -309h247v309z" />
    <glyph glyph-name="five" unicode="5" horiz-adv-x="556" 
d="M101 671h358v-78h-296v-200c44 12 74 16 108 16c130 0 217 -77 217 -193c0 -132 -109 -228 -260 -228c-101 0 -178 42 -178 97c0 31 24 53 57 53c8 0 13 -1 25 -3l40 -86c25 -10 45 -14 67 -14c94 0 158 67 158 164c0 100 -68 148 -210 148c-34 0 -59 -2 -86 -6v330z" />
    <glyph glyph-name="six" unicode="6" horiz-adv-x="556" 
d="M443 714v-58c-163 0 -263 -92 -296 -272c55 41 110 61 169 61c121 0 209 -92 209 -217c0 -136 -105 -240 -241 -240c-143 0 -234 114 -234 296c0 169 71 304 198 375c58 33 114 49 195 55zM145 340l-1 -58c0 -160 51 -246 146 -246c84 0 144 76 144 181
c0 103 -57 168 -146 168c-54 0 -96 -13 -143 -45z" />
    <glyph glyph-name="seven" unicode="7" horiz-adv-x="556" 
d="M71 671h460v-40l-332 -646v-22h-83l326 632h-308l-16 -91h-47v167z" />
    <glyph glyph-name="eight" unicode="8" horiz-adv-x="556" 
d="M366 352c97 -36 143 -91 143 -171c0 -114 -98 -196 -234 -196s-228 77 -228 192c0 81 43 136 137 174c-73 34 -105 81 -105 153c0 108 84 182 207 182c115 0 195 -69 195 -166c0 -70 -37 -125 -115 -168zM222 330c-74 -43 -98 -79 -98 -145c0 -90 62 -148 156 -148
c85 0 143 54 143 132c0 48 -21 79 -77 109c-23 13 -48 23 -124 52zM324 370c57 41 81 83 81 142c0 74 -50 126 -121 126c-69 0 -122 -51 -122 -117c0 -45 23 -80 72 -110c19 -12 40 -21 90 -41z" />
    <glyph glyph-name="nine" unicode="9" horiz-adv-x="556" 
d="M126 -50l-23 46c152 69 255 165 295 275c-64 -28 -106 -39 -151 -39c-121 0 -204 88 -204 215c0 139 100 236 244 236c140 0 226 -96 226 -253c0 -150 -76 -287 -214 -388c-52 -38 -97 -62 -173 -92zM411 321c8 42 11 70 11 107c0 131 -52 207 -143 207
c-86 0 -142 -70 -142 -179c0 -108 53 -170 147 -170c40 0 73 9 127 35z" />
    <glyph glyph-name="colon" unicode=":" horiz-adv-x="319" 
d="M160 481c35 0 63 -28 63 -63s-29 -64 -64 -64s-63 29 -63 64c0 36 27 63 64 63zM160 118c34 0 63 -29 63 -64s-29 -63 -64 -63s-63 28 -63 63c0 36 28 64 64 64z" />
    <glyph glyph-name="semicolon" unicode=";" horiz-adv-x="319" 
d="M160 481c35 0 63 -28 63 -63s-29 -64 -64 -64s-63 28 -63 64s27 63 64 63zM65 -169v33c78 16 113 61 110 143h-64c-12 14 -16 25 -16 43c0 34 24 56 60 56c48 0 79 -38 79 -96c0 -61 -31 -117 -82 -149c-24 -16 -47 -24 -87 -30z" />
    <glyph glyph-name="less" unicode="&#x3c;" horiz-adv-x="833" 
d="M704 559v-62l-488 -199l488 -198v-63l-575 236v50z" />
    <glyph glyph-name="equal" unicode="=" horiz-adv-x="833" 
d="M124 420h585v-58h-585v58zM124 234h585v-58h-585v58z" />
    <glyph glyph-name="greater" unicode="&#x3e;" horiz-adv-x="833" 
d="M129 559l575 -236v-50l-575 -236v63l488 198l-488 199v62z" />
    <glyph glyph-name="question" unicode="?" horiz-adv-x="486" 
d="M227 288v-117h-53v146c100 40 145 95 145 181c0 63 -27 108 -77 128c-19 8 -28 9 -68 11l-41 -99c-12 -1 -15 -1 -21 -1c-35 0 -57 20 -57 52c0 55 62 94 150 94c123 0 205 -72 205 -180c0 -93 -56 -159 -183 -215zM201 105c31 0 57 -26 57 -57s-26 -57 -58 -57
c-31 0 -56 25 -56 57s24 57 57 57z" />
    <glyph glyph-name="at" unicode="@" horiz-adv-x="942" 
d="M645 488h54c-8 -20 -11 -34 -23 -86l-4 -21l-39 -172c-6 -26 -8 -40 -8 -55c0 -26 16 -43 40 -43c81 0 160 128 160 261c0 167 -116 277 -291 277c-221 0 -387 -168 -387 -392c0 -217 143 -361 359 -361c90 0 167 22 261 73l14 -34c-109 -60 -207 -88 -304 -88
c-112 0 -215 40 -289 113s-112 168 -112 284c0 257 194 448 454 448c207 0 341 -125 341 -320c0 -97 -34 -185 -96 -246c-45 -45 -101 -71 -152 -71c-50 0 -72 26 -72 86c-57 -59 -101 -84 -147 -84c-73 0 -124 66 -124 161c0 146 115 274 248 274c33 0 60 -8 99 -27z
M594 394l-41 56c-7 1 -22 2 -27 2c-88 0 -161 -101 -161 -223c0 -71 29 -111 81 -111c38 0 68 19 107 66z" />
    <glyph glyph-name="A" unicode="A" horiz-adv-x="639" 
d="M284 679h66l240 -626l60 -12v-41h-227v41l62 5l7 14l-72 191h-236l-71 -191l10 -14l65 -5v-41h-196v41l58 12zM300 574l-99 -277h202z" />
    <glyph glyph-name="B" unicode="B" horiz-adv-x="604" 
d="M33 671h255c152 0 229 -53 229 -158c0 -81 -41 -125 -145 -157c125 -5 187 -60 187 -164c0 -122 -95 -192 -262 -192h-264v41l57 5l17 14v551l-17 14l-57 5v41zM197 624v-257c26 -1 29 -1 38 -1c124 0 183 44 183 137c0 80 -54 124 -153 124c-12 0 -22 0 -68 -3zM197 317
v-267c52 -3 56 -3 71 -3c132 0 192 44 192 142c0 90 -54 134 -163 134c-28 0 -58 -2 -100 -6z" />
    <glyph glyph-name="C" unicode="C" horiz-adv-x="632" 
d="M588 181v-158c-76 -25 -134 -35 -201 -35c-105 0 -186 34 -252 104c-60 65 -92 151 -92 248c0 204 141 343 347 343c61 0 110 -8 198 -34v-154h-56l-15 91l-13 18c-46 20 -73 26 -113 26c-152 0 -245 -111 -245 -291c0 -185 99 -298 261 -298c31 0 54 3 87 13l16 16
l24 111h54z" />
    <glyph glyph-name="D" unicode="D" horiz-adv-x="693" 
d="M33 671h247c235 0 370 -123 370 -335c0 -132 -54 -235 -154 -293c-53 -31 -115 -43 -216 -43h-247v41l57 5l17 14v551l-17 14l-57 5v41zM197 625v-579h79c182 0 271 96 271 292c0 192 -89 287 -271 287h-79z" />
    <glyph glyph-name="E" unicode="E" horiz-adv-x="576" 
d="M33 0v41l57 5l17 14v551l-17 14l-57 5v41h479v-146h-56l-14 85l-14 15h-231v-253h164l14 14l10 73h47v-220h-47l-10 72l-14 15h-164v-280h268l14 16l17 101h52v-163h-515z" />
    <glyph glyph-name="F" unicode="F" horiz-adv-x="537" 
d="M33 0v41l57 5l17 14v551l-17 14l-65 5v41h480v-156h-55l-15 95l-13 15h-225v-263h164l14 14l10 73h47v-221h-47l-10 73l-14 15h-164v-256l17 -14l71 -5v-41h-252z" />
    <glyph glyph-name="G" unicode="G" horiz-adv-x="694" 
d="M417 322h250v-41l-55 -5l-17 -14v-239c-92 -26 -147 -35 -207 -35c-103 0 -184 32 -248 99c-63 65 -97 154 -97 254c0 207 141 342 359 342c62 0 114 -8 192 -29v-159h-56l-15 91l-14 18c-43 19 -74 26 -115 26c-154 0 -248 -109 -248 -288c0 -187 98 -301 259 -301
c30 0 56 3 100 13v208l-17 14l-71 5v41z" />
    <glyph glyph-name="H" unicode="H" horiz-adv-x="738" 
d="M33 671h243v-41l-62 -5l-17 -14v-236h344v236l-17 14l-62 5v41h243v-41l-57 -5l-17 -14v-551l17 -14l57 -5v-41h-243v41l62 5l17 14v269h-344v-269l17 -14l62 -5v-41h-243v41l57 5l17 14v551l-17 14l-57 5v41z" />
    <glyph glyph-name="I" unicode="I" horiz-adv-x="324" 
d="M35 0v41l64 5l17 14v551l-17 14l-64 5v41h254v-41l-64 -5l-17 -14v-551l17 -14l64 -5v-41h-254z" />
    <glyph glyph-name="J" unicode="J" horiz-adv-x="444" 
d="M271 611l-17 14l-67 5v41h253v-41l-62 -5l-17 -14v-355c0 -184 -68 -268 -216 -268c-45 0 -77 6 -133 24v167h56l24 -126l14 -13c15 -3 23 -4 36 -4c90 0 129 65 129 216v359z" />
    <glyph glyph-name="K" unicode="K" horiz-adv-x="611" 
d="M33 0v41l57 5l17 14v551l-17 14l-57 5v41h243v-41l-62 -5l-17 -14v-271h38l222 271l-6 14l-56 5v41h208v-41l-66 -8l-210 -250l227 -326l73 -5v-41h-165v30l-191 269h-74v-239l17 -14l62 -5v-41h-243z" />
    <glyph glyph-name="L" unicode="L" horiz-adv-x="520" 
d="M26 0v41l64 5l17 14v551l-17 14l-64 5v41h244v-41l-57 -5l-16 -14v-565h225l14 16l17 120h52v-182h-479z" />
    <glyph glyph-name="M" unicode="M" horiz-adv-x="866" 
d="M31 0v41l60 8l18 19v543l-13 14l-66 5v41h212v-27l188 -502l190 498v31h213v-41l-62 -5l-12 -14v-551l12 -14l62 -5v-41h-238v41l66 5l10 14v564l-237 -624h-43l-228 614v-546l18 -19l61 -8v-41h-211z" />
    <glyph glyph-name="N" unicode="N" horiz-adv-x="713" 
d="M29 0v41l61 8l18 19v543l-18 14l-64 5v41h188v-25l341 -512v470l-18 18l-60 8v41h210v-41l-60 -8l-18 -18v-604h-66l-381 568v-500l18 -19l60 -8v-41h-211z" />
    <glyph glyph-name="O" unicode="O" horiz-adv-x="732" 
d="M371 687c183 0 318 -149 318 -351c0 -206 -134 -352 -322 -352c-190 0 -324 145 -324 351c0 208 134 352 328 352zM364 634c-131 0 -216 -117 -216 -297c0 -182 86 -300 219 -300c131 0 217 117 217 297c0 185 -84 300 -220 300z" />
    <glyph glyph-name="P" unicode="P" horiz-adv-x="558" 
d="M33 0v41l57 5l17 14v551l-17 14l-65 5v41h228c194 0 278 -59 278 -193c0 -143 -95 -226 -258 -226c-23 0 -41 1 -76 5v-197l17 -14l71 -5v-41h-252zM197 623v-318c38 -4 53 -5 71 -5c108 0 170 61 170 169c0 104 -61 156 -183 156c-14 0 -21 0 -58 -2z" />
    <glyph glyph-name="Q" unicode="Q" horiz-adv-x="731" 
d="M650 -119v-41c-59 -12 -97 -16 -142 -16c-128 0 -187 52 -189 165c-77 14 -126 37 -173 80c-69 63 -107 158 -107 268c0 203 137 350 327 350c191 0 326 -145 326 -350c0 -188 -102 -315 -278 -348c6 -82 50 -119 141 -119c29 0 61 4 95 11zM363 634
c-133 0 -219 -116 -219 -297s87 -298 222 -298c134 0 221 116 221 297c0 184 -85 298 -224 298z" />
    <glyph glyph-name="R" unicode="R" horiz-adv-x="646" 
d="M33 671h255c161 0 241 -59 241 -175c0 -92 -49 -143 -162 -171c84 -23 113 -57 134 -157c24 -110 49 -130 155 -129v-38c-40 -7 -54 -9 -79 -9c-94 0 -128 32 -159 151c-19 72 -30 96 -51 119c-25 27 -60 38 -117 38c-14 0 -19 0 -53 -2v-238l17 -14l57 -5v-41h-238v41
l57 5l17 14v551l-17 14l-57 5v41zM197 625v-279c34 -2 47 -2 59 -2c119 0 173 44 173 141c0 98 -55 140 -184 140h-48z" />
    <glyph glyph-name="S" unicode="S" horiz-adv-x="556" 
d="M60 20v176h59l12 -115l13 -17c34 -16 66 -23 110 -23c97 0 153 45 153 123c0 41 -13 65 -48 88c-25 17 -32 20 -125 60c-122 51 -163 96 -163 176c0 119 90 195 233 195c54 0 103 -8 168 -28v-155h-52l-15 95l-15 17c-30 15 -55 21 -90 21c-82 0 -136 -47 -136 -119
c0 -41 15 -66 53 -91c21 -13 47 -25 121 -56c121 -49 162 -95 162 -179c0 -122 -104 -200 -264 -200c-66 0 -120 10 -176 32z" />
    <glyph glyph-name="T" unicode="T" horiz-adv-x="597" 
d="M16 671h565v-154h-55l-14 93l-14 15h-153v-565l17 -14l67 -5v-41h-261v41l67 5l17 14v565h-153l-14 -15l-14 -93h-55v154z" />
    <glyph glyph-name="U" unicode="U" horiz-adv-x="694" 
d="M25 671h245v-41l-62 -5l-17 -14v-362c0 -139 54 -199 177 -199c125 0 179 60 179 199v355l-19 18l-60 8v41h211v-41l-60 -8l-18 -18v-364c0 -91 -13 -141 -45 -178c-42 -47 -117 -74 -207 -74c-105 0 -186 36 -222 98c-20 35 -28 80 -28 154v371l-17 14l-57 5v41z" />
    <glyph glyph-name="V" unicode="V" horiz-adv-x="618" 
d="M-23 671h233v-41l-58 -5l-11 -14l188 -504l181 504l-10 14l-62 5v41h199v-41l-62 -11l-230 -624h-69l-235 624l-64 11v41z" />
    <glyph glyph-name="W" unicode="W" horiz-adv-x="928" 
d="M231 0l-168 617l-63 13v41h224v-41l-63 -7l-8 -14l129 -462l161 524h70l164 -535l121 469l-11 14l-67 11v41h207v-41l-67 -13l-159 -617h-68l-169 547l-166 -547h-67z" />
    <glyph glyph-name="X" unicode="X" horiz-adv-x="600" 
d="M11 671h241v-41l-60 -5l-8 -12l131 -206l142 202l-9 13l-58 8v41h204v-41l-64 -9l-183 -261l194 -307l68 -12v-41h-253v41l67 7l7 14l-141 227l-158 -224l6 -18l67 -6v-41h-213v41l66 13l201 281l-181 283l-66 12v41z" />
    <glyph glyph-name="Y" unicode="Y" horiz-adv-x="586" 
d="M-13 671h232v-41l-57 -5l-10 -11l153 -275l168 267l-9 14l-61 10v41h204v-41l-61 -12l-208 -333v-225l16 -14l68 -5v-41h-259v41l68 5l16 14v212l-199 349l-61 9v41z" />
    <glyph glyph-name="Z" unicode="Z" horiz-adv-x="586" 
d="M67 671h467v-42l-380 -580h302l11 13l18 119h54v-181h-494v41l379 582h-267l-19 -13l-16 -94h-55v155z" />
    <glyph glyph-name="bracketleft" unicode="[" horiz-adv-x="421" 
d="M139 708h237v-43h-158v-755h158v-42h-237v840z" />
    <glyph glyph-name="backslash" unicode="\" horiz-adv-x="481" 
d="M13 671h61l428 -764h-61z" />
    <glyph glyph-name="bracketright" unicode="]" horiz-adv-x="421" 
d="M282 708v-840h-237v42h158v755h-158v43h237z" />
    <glyph glyph-name="asciicircum" unicode="^" horiz-adv-x="1000" 
d="M457 714h87l254 -276h-45l-253 213l-254 -213h-44z" />
    <glyph glyph-name="underscore" unicode="_" 
d="M0 -80h500v-58h-500v58z" />
    <glyph glyph-name="quoteleft" unicode="&#x2018;" horiz-adv-x="201" 
d="M131 713h43c-58 -68 -80 -109 -80 -152c0 -7 0 -11 2 -25h64c10 -15 13 -24 13 -36c0 -34 -25 -58 -61 -58c-45 0 -77 37 -77 89c0 62 24 107 96 182z" />
    <glyph glyph-name="a" unicode="a" horiz-adv-x="505" 
d="M347 0l-13 58c-73 -48 -116 -65 -165 -65c-76 0 -127 52 -127 127c0 59 31 99 100 127c49 19 71 26 192 56v32c0 82 -24 111 -90 111c-27 0 -47 -4 -78 -15v-84h-69c-23 0 -31 7 -31 29c0 67 82 114 200 114c106 0 151 -43 151 -143v-290l17 -16l53 -5v-36h-140zM334 92
v176c-86 -25 -101 -30 -135 -46c-48 -23 -69 -51 -69 -92c0 -50 31 -83 78 -83c34 0 67 12 126 45z" />
    <glyph glyph-name="b" unicode="b" horiz-adv-x="538" 
d="M131 736h37v-280c52 24 94 34 137 34c120 0 198 -92 198 -234c0 -165 -103 -256 -290 -256h-128v669h-77v31zM168 422v-376c36 -2 42 -2 55 -2c129 0 190 64 190 199c0 124 -56 194 -155 194c-25 0 -49 -4 -90 -15z" />
    <glyph glyph-name="c" unicode="c" horiz-adv-x="446" 
d="M425 94v-52c-63 -35 -109 -49 -164 -49c-134 0 -224 99 -224 247c0 150 96 250 240 250c89 0 147 -37 147 -95c0 -32 -22 -54 -54 -54c-18 0 -31 4 -47 14v82c-17 9 -31 13 -50 13c-86 0 -145 -82 -145 -200c0 -123 64 -198 169 -198c44 0 77 11 128 42z" />
    <glyph glyph-name="d" unicode="d" horiz-adv-x="566" 
d="M384 669h-77v31l122 36h38v-679l17 -16l48 -5v-36h-148v52c-58 -44 -100 -61 -153 -61c-114 0 -194 97 -194 234c0 157 105 265 259 265c26 0 53 -3 88 -9v188zM384 89v343c-47 11 -64 14 -88 14c-103 0 -171 -82 -171 -204c0 -115 58 -188 149 -188c36 0 66 10 110 35z
" />
    <glyph glyph-name="e" unicode="e" horiz-adv-x="491" 
d="M448 106v-55c-66 -42 -123 -60 -186 -60c-134 0 -225 99 -225 245c0 149 96 254 231 254c111 0 180 -74 180 -194c0 -7 0 -18 -1 -33h-324c0 -46 3 -67 12 -98c23 -74 80 -117 155 -117c50 0 89 14 158 58zM128 305h231c0 47 -3 68 -14 90c-18 33 -48 51 -88 51
c-71 0 -118 -52 -129 -141z" />
    <glyph glyph-name="f" unicode="f" horiz-adv-x="322" 
d="M30 0v36l53 5l18 16v364h-64v32l64 15c0 61 6 103 23 146c32 81 99 130 177 130c48 0 81 -23 81 -58c0 -24 -13 -40 -41 -49l-91 60c-45 -24 -65 -71 -65 -156v-73h139v-47h-140v-364l17 -16l62 -5v-36h-233z" />
    <glyph glyph-name="g" unicode="g" horiz-adv-x="523" 
d="M369 463h143v-47h-110c19 -30 28 -58 28 -92c0 -95 -77 -158 -193 -158c-5 0 -9 0 -15 1c-7 -14 -11 -30 -11 -46c0 -6 0 -11 2 -23l96 -15c123 -19 170 -53 170 -120c0 -99 -117 -181 -259 -181c-112 0 -180 49 -180 129c0 65 40 110 108 124c-7 17 -10 29 -10 43
c0 28 14 55 48 97c-80 21 -124 75 -124 151c0 97 78 164 192 164c41 0 75 -8 115 -27zM244 451c-58 0 -96 -49 -96 -122c0 -74 39 -123 98 -123s98 49 98 122c0 75 -39 123 -100 123zM303 12l-97 18c-59 -21 -86 -53 -86 -99c0 -61 56 -103 136 -103c85 0 149 46 149 108
c0 45 -21 61 -102 76z" />
    <glyph glyph-name="h" unicode="h" horiz-adv-x="563" 
d="M141 736h38v-305c84 45 124 59 166 59c82 0 130 -56 130 -151v-282l17 -16l54 -5v-36h-219v36l48 5l17 16v265c0 71 -29 102 -96 102c-36 0 -65 -8 -117 -32v-335l18 -16l47 -5v-36h-219v36l54 5l17 16v612h-77v31z" />
    <glyph glyph-name="i" unicode="i" horiz-adv-x="280" 
d="M154 708c31 0 57 -26 57 -58s-25 -57 -58 -57c-32 0 -57 25 -57 57s26 58 58 58zM150 486h39v-429l17 -16l54 -5v-36h-226v36l54 5l17 16v362h-71v31z" />
    <glyph glyph-name="j" unicode="j" horiz-adv-x="266" 
d="M109 419h-71v31l116 36h38v-402c0 -135 -11 -184 -53 -233c-38 -43 -93 -69 -147 -69c-43 0 -70 21 -70 54c0 24 12 41 37 52l97 -59c37 14 53 61 53 155v435zM146 708c31 0 57 -26 57 -58s-25 -57 -57 -57s-58 25 -58 57s26 58 58 58z" />
    <glyph glyph-name="k" unicode="k" horiz-adv-x="517" 
d="M25 0v36l54 5l17 16v612h-77v31l122 36h38v-481h19l153 171l-7 14l-45 4v37h190v-37l-64 -8l-137 -145l176 -248l64 -5v-38h-156v33l-135 194h-58v-170l18 -16l47 -5v-36h-219z" />
    <glyph glyph-name="l" unicode="l" horiz-adv-x="282" 
d="M28 0v36l59 5l17 16v612h-77v31l122 36h38v-679l18 -16l58 -5v-36h-235z" />
    <glyph glyph-name="m" unicode="m" horiz-adv-x="843" 
d="M184 486v-55c78 44 119 59 162 59c48 0 81 -21 108 -66c87 49 133 66 176 66c77 0 125 -58 125 -151v-282l17 -16l54 -5v-36h-219v36l47 5l18 16v265c0 68 -29 102 -88 102c-34 0 -63 -8 -115 -32v-335l18 -16l47 -5v-36h-213v36l48 5l17 16v265c0 69 -28 102 -86 102
c-35 0 -66 -8 -116 -32v-335l17 -16l48 -5v-36h-219v36l54 5l17 16v362h-71v31l116 36h38z" />
    <glyph glyph-name="n" unicode="n" horiz-adv-x="568" 
d="M30 0v36l54 5l17 16v362h-71v31l116 36h38v-55c88 47 122 59 166 59c83 0 130 -55 130 -151v-282l17 -16l54 -5v-36h-219v36l48 5l17 16v265c0 71 -29 102 -95 102c-37 0 -65 -7 -118 -32v-335l17 -16l48 -5v-36h-219z" />
    <glyph glyph-name="o" unicode="o" horiz-adv-x="539" 
d="M271 490c134 0 231 -105 231 -250s-97 -249 -233 -249s-232 103 -232 249c0 149 95 250 234 250zM267 446c-82 0 -136 -81 -136 -205s55 -206 138 -206c84 0 139 81 139 205c0 126 -55 206 -141 206z" />
    <glyph glyph-name="p" unicode="p" horiz-adv-x="550" 
d="M22 -218v36l55 5l16 16v580h-71v31l117 36h37v-55c59 43 99 59 148 59c112 0 191 -96 191 -233c0 -157 -97 -260 -246 -260c-26 0 -52 3 -93 9v-167l17 -16l64 -5v-36h-235zM176 394v-336c35 -11 60 -15 84 -15c100 0 167 81 167 202c0 110 -57 182 -146 182
c-33 0 -63 -9 -105 -33z" />
    <glyph glyph-name="q" unicode="q" horiz-adv-x="530" 
d="M372 -161v194c-57 -26 -95 -36 -136 -36c-120 0 -199 91 -199 229c0 165 106 266 278 266c43 0 89 -5 143 -17c-3 -62 -3 -63 -3 -73v-563l17 -17l54 -4v-36h-234v36l63 4zM372 65v373c-34 8 -52 10 -76 10c-106 0 -169 -78 -169 -208c0 -118 57 -190 150 -190
c26 0 51 4 95 15z" />
    <glyph glyph-name="r" unicode="r" horiz-adv-x="382" 
d="M30 0v36l54 5l17 16v362h-71v31l116 36h38v-94c33 34 65 63 107 97c10 2 15 2 24 2c22 0 36 -3 61 -13v-86h-32c-16 18 -29 24 -50 24c-33 0 -64 -21 -110 -73v-286l17 -16l70 -5v-36h-241z" />
    <glyph glyph-name="s" unicode="s" horiz-adv-x="400" 
d="M344 469v-113h-49l-8 71c-29 14 -50 19 -76 19c-50 0 -81 -26 -81 -69c0 -40 22 -63 90 -94c74 -34 85 -40 107 -61c21 -19 32 -47 32 -81c0 -94 -70 -150 -188 -150c-46 0 -85 6 -129 21v130h48l12 -85c31 -16 56 -22 88 -22c54 0 91 32 91 80c0 24 -10 45 -29 60
c-16 12 -27 18 -73 39c-103 48 -129 76 -129 139c0 86 66 137 177 137c46 0 77 -6 117 -21z" />
    <glyph glyph-name="t" unicode="t" horiz-adv-x="334" 
d="M88 421h-63v31l66 29l43 93h37v-106h152v-47h-152v-264c0 -84 19 -109 81 -109c23 0 46 2 71 8v-37c-53 -16 -90 -22 -133 -22c-76 0 -102 25 -102 101v323z" />
    <glyph glyph-name="u" unicode="u" horiz-adv-x="569" 
d="M142 491h38v-331c0 -72 30 -105 97 -105c37 0 70 8 116 29v339h-71v31l116 37h38v-434l18 -16l47 -5v-36h-148v56c-73 -49 -113 -65 -165 -65c-84 0 -131 55 -131 152v280h-71v31z" />
    <glyph glyph-name="v" unicode="v" horiz-adv-x="494" 
d="M-5 481h217v-36l-53 -5l-12 -16l117 -327l128 327l-8 16l-54 5v36h177v-36l-59 -9l-175 -436h-56l-161 438l-61 7v36z" />
    <glyph glyph-name="w" unicode="w" horiz-adv-x="771" 
d="M-2 481h217v-36l-53 -5l-12 -16l91 -325l134 382h61l118 -382l102 325l-8 16l-54 5v36h177v-36l-56 -9l-143 -436h-62l-121 379l-135 -379h-62l-133 438l-61 7v36z" />
    <glyph glyph-name="x" unicode="x" horiz-adv-x="503" 
d="M18 481h215v-36l-46 -7l-5 -10l84 -131l91 128l-8 13l-48 7v36h180v-36l-56 -11l-132 -175l147 -214l60 -8v-37h-213v37l42 7l5 8l-93 149l-102 -145l5 -12l57 -7v-37h-189v37l57 8l144 193l-134 195l-61 12v36z" />
    <glyph glyph-name="y" unicode="y" horiz-adv-x="495" 
d="M-1 481h217v-36l-53 -5l-12 -16l120 -311l125 311l-8 16l-54 5v36h178v-36l-58 -9l-200 -486c-48 -116 -98 -168 -160 -168c-41 0 -69 23 -69 56c0 20 8 36 26 54l96 -38c31 35 55 79 81 150l-168 434l-61 7v36z" />
    <glyph glyph-name="z" unicode="z" horiz-adv-x="468" 
d="M45 0v50l267 385h-185l-14 -16l-11 -77h-47v139h361v-38l-277 -397h215l15 16l11 85h51v-147h-386z" />
    <glyph glyph-name="braceleft" unicode="{" horiz-adv-x="486" 
d="M418 703v-37c-101 -5 -128 -30 -128 -120v-81c0 -110 -33 -154 -130 -175c91 -18 131 -70 131 -169v-83c0 -109 22 -132 127 -133v-39c-90 0 -125 6 -156 28c-36 26 -51 71 -51 155v85c0 102 -30 134 -128 134h-18v44c16 -1 24 -1 31 -1c83 0 114 35 114 129v102
c0 113 58 161 193 161h15z" />
    <glyph glyph-name="bar" unicode="|" 
d="M219 764h62v-1000h-62v1000z" />
    <glyph glyph-name="braceright" unicode="}" horiz-adv-x="486" 
d="M68 703h15c135 0 193 -48 193 -161v-102c0 -94 31 -129 114 -129c7 0 15 0 31 1v-44h-19c-96 0 -127 -32 -127 -134v-85c0 -92 -18 -139 -64 -163c-29 -15 -63 -20 -143 -20v39c105 1 127 24 127 133v83c0 99 40 151 131 169c-97 21 -130 65 -130 175v81
c0 90 -27 115 -128 120v37z" />
    <glyph glyph-name="asciitilde" unicode="~" horiz-adv-x="833" 
d="M746 370v-64c-73 -50 -128 -70 -189 -70c-40 0 -62 5 -148 36c-63 23 -99 31 -134 31c-56 0 -104 -20 -189 -78v65c78 51 131 71 190 71c45 0 69 -6 175 -44c48 -18 76 -24 106 -24c57 0 105 19 189 77z" />
    <glyph glyph-name="exclamdown" unicode="&#xa1;" horiz-adv-x="338" 
d="M193 311l28 -382c2 -27 3 -44 3 -57c0 -48 -19 -73 -55 -73s-55 25 -55 73c0 18 1 28 3 57l28 382h48zM170 491c31 0 56 -26 56 -57c0 -32 -25 -57 -57 -57s-57 25 -57 57s25 57 58 57z" />
    <glyph glyph-name="cent" unicode="&#xa2;" horiz-adv-x="556" 
d="M273 601h46v-97c58 -1 88 -5 145 -24v-147h-45l-16 104c-26 15 -48 20 -84 20v-411c34 0 57 6 84 19l14 109h47v-152c-44 -16 -83 -22 -145 -21v-99h-46v101c-134 22 -209 110 -209 244c0 136 76 229 209 253v101zM273 48v406c-80 -25 -123 -96 -123 -205
c0 -105 44 -176 123 -201z" />
    <glyph glyph-name="sterling" unicode="&#xa3;" horiz-adv-x="556" 
d="M417 531v94c-21 7 -35 9 -53 9c-98 0 -134 -64 -134 -238c0 -21 0 -29 1 -44h188v-47h-188c2 -112 -31 -189 -100 -231l2 -3c55 5 59 5 75 5h298v-76h-469v57c89 27 111 70 111 216v32h-72v47h71c-1 32 -1 51 -1 59c0 88 11 141 38 183c37 55 101 89 172 89
c84 0 152 -44 152 -99c0 -34 -24 -57 -61 -57c-9 0 -18 1 -30 4z" />
    <glyph glyph-name="fraction" unicode="&#x2044;" horiz-adv-x="185" 
d="M276 671h61l-428 -671h-61z" />
    <glyph glyph-name="yen" unicode="&#xa5;" horiz-adv-x="556" 
d="M-6 671h212v-40l-52 -6l-9 -11l140 -274l153 266l-9 14l-55 11v40h185v-40l-55 -13l-110 -192h144v-42h-171l-59 -104h230v-42h-226v-178l17 -14l72 -5v-41h-258v41l69 5l19 14v178h-217v42h216l-53 104h-163v42h136l-99 195l-57 10v40z" />
    <glyph glyph-name="florin" unicode="&#x192;" horiz-adv-x="556" 
d="M462 561l-85 72c-61 -24 -77 -62 -77 -185v-80h162v-49h-162c1 -64 1 -72 1 -98c0 -139 -13 -214 -46 -273c-39 -70 -113 -117 -183 -117c-40 0 -66 22 -66 57c0 25 11 43 36 60l102 -57c57 36 75 86 75 209v219h-115v49h115v75c0 86 18 137 65 181c38 37 90 59 137 59
c51 0 86 -25 86 -62c0 -24 -13 -42 -45 -60z" />
    <glyph glyph-name="section" unicode="&#xa7;" 
d="M406 695v-129h-45l-10 80c-41 22 -67 30 -97 30c-58 0 -101 -37 -101 -85c0 -23 10 -42 28 -56c20 -16 22 -17 100 -54c112 -53 156 -103 156 -175c0 -47 -22 -93 -61 -125c-16 -14 -30 -23 -61 -37c73 -34 105 -74 105 -133c0 -89 -76 -151 -187 -151
c-45 0 -86 9 -144 31l-2 129h48l14 -90c36 -18 64 -26 96 -26c60 0 102 34 102 84c0 32 -16 56 -56 81c-19 12 -21 13 -106 53c-81 38 -122 93 -122 166c0 71 35 117 118 155c-75 39 -101 73 -101 133c0 89 71 142 190 142c46 0 82 -6 136 -23zM223 424
c-61 -29 -87 -64 -87 -116c0 -42 19 -74 62 -104c16 -11 34 -20 81 -42c62 43 85 76 85 122c0 60 -42 101 -141 140z" />
    <glyph glyph-name="currency" unicode="&#xa4;" horiz-adv-x="607" 
d="M77 693l101 -101c45 32 79 44 125 44s82 -12 127 -44l100 101l35 -36l-100 -100c30 -43 42 -79 42 -125s-12 -82 -42 -125l100 -100l-35 -36l-100 101c-43 -31 -78 -43 -127 -43s-82 12 -125 43l-101 -101l-35 36l101 100c-31 43 -43 79 -43 125s12 82 43 125l-101 100z
M302 586c-83 0 -152 -69 -152 -153c0 -85 69 -154 154 -154c84 0 153 69 153 154s-68 153 -155 153z" />
    <glyph glyph-name="quotesingle" unicode="'" horiz-adv-x="171" 
d="M93 422h-16l-32 223l-1 21c0 30 15 48 41 48c25 0 42 -18 42 -44c0 -7 -1 -18 -2 -25z" />
    <glyph glyph-name="quotedblleft" unicode="&#x201c;" horiz-adv-x="403" 
d="M131 713h43c-58 -68 -80 -109 -80 -152c0 -7 0 -11 2 -25h64c10 -15 13 -24 13 -36c0 -34 -25 -58 -61 -58c-45 0 -77 37 -77 89c0 62 24 107 96 182zM333 713h43c-59 -69 -80 -109 -80 -151c0 -6 0 -11 2 -26h64c10 -16 13 -24 13 -37c0 -33 -25 -57 -61 -57
c-45 0 -77 37 -77 89c0 62 26 111 96 182z" />
    <glyph glyph-name="guillemotleft" unicode="&#xab;" horiz-adv-x="442" 
d="M199 413v-66l-117 -107l117 -108v-65l-164 133v80zM396 413v-66l-117 -107l117 -108v-65l-164 133v80z" />
    <glyph glyph-name="guilsinglleft" unicode="&#x2039;" horiz-adv-x="245" 
d="M199 413v-66l-117 -107l117 -108v-65l-164 133v80z" />
    <glyph glyph-name="guilsinglright" unicode="&#x203a;" horiz-adv-x="244" 
d="M46 413l163 -133v-80l-163 -133v65l117 108l-117 107v66z" />
    <glyph glyph-name="fi" unicode="&#xfb01;" horiz-adv-x="576" 
d="M320 637l-77 56c-41 -27 -58 -71 -58 -152v-73h207l58 27h33v-438l16 -16l47 -5v-36h-218v36l54 5l17 16v364h-215v-364l17 -16l51 -5v-36h-222v36l53 5l18 16v364h-64v31l64 16c0 56 4 86 16 125c30 93 98 151 178 151c42 0 68 -20 68 -53c0 -25 -12 -40 -43 -54z
M453 696c29 0 51 -23 51 -51c0 -29 -23 -52 -51 -52c-29 0 -52 23 -52 52s22 51 52 51z" />
    <glyph glyph-name="fl" unicode="&#xfb02;" horiz-adv-x="579" 
d="M464 743h22v-686l17 -16l57 -5v-36h-227v36l53 5l17 16v610h-45l-35 -26l-74 56c-45 -24 -65 -71 -65 -156v-73h139v-47h-140v-364l17 -16l51 -5v-36h-222v36l53 5l18 16v364h-64v31l64 16c0 65 7 110 28 155c34 76 96 121 166 121c40 0 62 -16 68 -49z" />
    <glyph glyph-name="endash" unicode="&#x2013;" 
d="M0 271h500v-61h-500v61z" />
    <glyph glyph-name="dagger" unicode="&#x2020;" 
d="M249 718l45 -76l-37 -140h-14l-38 140zM88 528l144 -40v-16l-144 -35l-71 46zM410 528l73 -45l-73 -46l-141 35v16zM243 460h14l42 -166l-42 -423h-14l-41 423z" />
    <glyph glyph-name="daggerdbl" unicode="&#x2021;" 
d="M249 718l45 -76l-37 -140h-14l-38 140zM88 528l144 -40v-16l-144 -35l-71 46zM410 528l73 -45l-73 -46l-141 35v16zM243 460h14l48 -166l-48 -167h-14l-51 167zM88 151l144 -40v-16l-144 -35l-71 46zM410 151l73 -45l-73 -46l-141 35v16zM243 84h14l37 -140l-45 -76
l-44 76z" />
    <glyph glyph-name="periodcentered" unicode="&#xb7;" horiz-adv-x="279" 
d="M141 399c34 0 62 -29 62 -64s-28 -63 -63 -63s-64 28 -64 63c0 36 29 64 65 64z" />
    <glyph glyph-name="paragraph" unicode="&#xb6;" horiz-adv-x="484" 
d="M458 671v-36l-62 -10v-704h-49v709h-76v-349c-170 -1 -245 58 -245 194s72 196 236 196h196z" />
    <glyph glyph-name="bullet" unicode="&#x2022;" horiz-adv-x="590" 
d="M296 516c78 0 143 -65 143 -144c0 -80 -65 -145 -145 -145s-144 64 -144 144c0 81 64 145 146 145z" />
    <glyph glyph-name="quotesinglbase" unicode="&#x201a;" horiz-adv-x="201" 
d="M74 -164h-43c61 72 80 109 80 151c0 5 0 11 -2 26h-64c-10 15 -13 24 -13 36c0 34 25 58 60 58c46 0 78 -36 78 -89c0 -62 -27 -112 -96 -182z" />
    <glyph glyph-name="quotedblbase" unicode="&#x201e;" horiz-adv-x="402" 
d="M70 -164h-43c61 72 80 109 80 151c0 5 0 11 -2 26h-64c-10 15 -13 24 -13 36c0 34 25 58 60 58c46 0 78 -36 78 -89c0 -62 -27 -112 -96 -182zM271 -164h-43c59 69 80 109 80 151c0 7 0 11 -2 26h-64c-10 15 -13 24 -13 36c0 34 25 58 61 58c45 0 77 -36 77 -89
c0 -62 -27 -112 -96 -182z" />
    <glyph glyph-name="quotedblright" unicode="&#x201d;" horiz-adv-x="402" 
d="M70 442h-43c59 70 80 109 80 151c0 6 0 11 -2 26h-64c-10 15 -13 23 -13 36c0 34 25 58 61 58c45 0 77 -37 77 -89c0 -62 -25 -110 -96 -182zM271 442h-43c58 67 80 109 80 152c0 6 0 11 -2 25h-64c-10 14 -13 24 -13 36c0 34 25 58 61 58c45 0 77 -37 77 -89
c0 -62 -25 -110 -96 -182z" />
    <glyph glyph-name="guillemotright" unicode="&#xbb;" horiz-adv-x="442" 
d="M46 413l163 -133v-80l-163 -133v65l117 108l-117 107v66zM244 413l163 -133v-80l-163 -133v65l117 108l-117 107v66z" />
    <glyph glyph-name="ellipsis" unicode="&#x2026;" horiz-adv-x="1000" 
d="M834 118c34 0 63 -29 63 -64s-29 -63 -64 -63s-63 28 -63 63c0 36 28 64 64 64zM167 118c35 0 63 -28 63 -63s-29 -64 -64 -64s-63 29 -63 64c0 36 27 63 64 63zM501 118c34 0 62 -29 62 -64s-28 -63 -63 -63s-64 28 -64 63c0 36 29 64 65 64z" />
    <glyph glyph-name="perthousand" unicode="&#x2030;" horiz-adv-x="1224" 
d="M183 683c91 0 148 -81 148 -210s-57 -209 -150 -209s-150 79 -150 208c0 133 56 211 152 211zM179 647c-50 0 -77 -61 -77 -174c0 -114 26 -173 77 -173c53 0 81 60 81 173c0 114 -28 174 -81 174zM608 671h61l-428 -671h-60zM673 407c91 0 148 -81 148 -210
c0 -130 -57 -209 -150 -209s-150 79 -150 209c0 132 57 210 152 210zM669 371c-50 0 -77 -61 -77 -174c0 -114 26 -173 77 -173c53 0 81 60 81 173c0 114 -28 174 -81 174zM1045 407c91 0 148 -81 148 -209c0 -130 -57 -210 -150 -210s-150 79 -150 208
c0 133 57 211 152 211zM1041 371c-51 0 -77 -61 -77 -175c0 -113 26 -172 77 -172c53 0 81 60 81 174c0 113 -28 173 -81 173z" />
    <glyph glyph-name="questiondown" unicode="&#xbf;" horiz-adv-x="486" 
d="M243 194v117h53v-146c-98 -37 -145 -96 -145 -181c0 -63 27 -108 77 -128c20 -8 27 -9 68 -11l41 99c15 1 15 1 21 1c35 0 57 -21 57 -53c0 -54 -63 -93 -150 -93c-123 0 -205 72 -205 180c0 94 54 157 183 215zM270 491c31 0 56 -25 56 -57s-25 -57 -56 -57
c-32 0 -58 25 -58 57c0 31 26 57 58 57z" />
    <glyph glyph-name="grave" unicode="`" 
d="M104 736h99l97 -190h-50z" />
    <glyph glyph-name="acute" unicode="&#xb4;" 
d="M309 736h99l-146 -190h-50z" />
    <glyph glyph-name="circumflex" unicode="&#x2c6;" 
d="M218 736h64l110 -190h-54l-88 141l-87 -141h-55z" />
    <glyph glyph-name="tilde" unicode="&#x2dc;" 
d="M361 708h41v-17c0 -61 -34 -103 -83 -103c-28 0 -50 7 -97 32c-28 14 -38 18 -48 18c-21 0 -35 -21 -35 -50c0 -4 0 -8 1 -15h-43c0 40 2 50 9 69c13 33 39 51 74 51c26 0 44 -6 87 -30c31 -18 43 -22 56 -22c26 0 38 21 38 67z" />
    <glyph glyph-name="macron" unicode="&#xaf;" 
d="M99 668h301v-60h-301v60z" />
    <glyph glyph-name="breve" unicode="&#x2d8;" 
d="M108 709h39c1 -62 23 -79 103 -79c79 0 99 15 101 79h40c1 -107 -35 -142 -142 -142c-101 0 -141 36 -141 129v13z" />
    <glyph glyph-name="dotaccent" unicode="&#x2d9;" 
d="M251 697c29 0 53 -24 53 -54s-24 -53 -54 -53s-53 23 -53 53c0 31 23 54 54 54z" />
    <glyph glyph-name="dieresis" unicode="&#xa8;" 
d="M157 691c28 0 50 -23 50 -51s-22 -50 -50 -50s-51 22 -51 50c0 29 22 51 51 51zM343 691c28 0 50 -23 50 -51s-22 -50 -50 -50s-51 22 -51 50c0 29 22 51 51 51z" />
    <glyph glyph-name="ring" unicode="&#x2da;" 
d="M251 781c64 0 116 -52 116 -117c0 -66 -52 -118 -118 -118s-117 52 -117 118c0 67 51 117 119 117zM248 736c-39 0 -71 -33 -71 -73s32 -72 72 -72s73 32 73 72c0 41 -33 73 -74 73z" />
    <glyph glyph-name="cedilla" unicode="&#xb8;" 
d="M221 0h37v-61c8 1 13 1 19 1c48 0 76 -26 76 -72c0 -56 -45 -91 -117 -91c-23 0 -33 1 -70 10v36c22 -6 38 -8 58 -8c43 0 68 16 68 43c0 22 -19 36 -50 36c-6 0 -10 0 -21 -1v107z" />
    <glyph glyph-name="hungarumlaut" unicode="&#x2dd;" 
d="M227 736h88l-141 -190h-41zM375 736h98l-189 -190h-47z" />
    <glyph glyph-name="ogonek" unicode="&#x2db;" 
d="M250 0h44c-37 -34 -54 -67 -54 -106c0 -36 20 -57 56 -57c8 0 8 0 28 3l6 1v-50c-22 -6 -36 -8 -54 -8c-59 0 -94 31 -94 85c0 50 21 92 68 132z" />
    <glyph glyph-name="caron" unicode="&#x2c7;" 
d="M108 736h55l87 -141l88 141h54l-110 -190h-64z" />
    <glyph glyph-name="emdash" unicode="&#x2014;" horiz-adv-x="1000" 
d="M0 210v61h1000v-61h-1000z" />
    <glyph glyph-name="AE" unicode="&#xc6;" horiz-adv-x="865" 
d="M283 671h518v-146h-55l-14 85l-14 15h-206v-253h138l15 14l10 73h46v-220h-46l-10 72l-15 15h-138v-280h242l15 16l16 101h52v-163h-485v41l57 5l17 14v191h-233l-120 -191l5 -14l64 -5v-41h-198v41l57 9l349 561l-9 14l-58 5v41zM426 630l-207 -332h207v332z" />
    <glyph glyph-name="ordfeminine" unicode="&#xaa;" horiz-adv-x="367" 
d="M241 258l-9 35c-46 -30 -72 -40 -104 -40c-48 0 -80 31 -80 77c0 38 21 61 72 79c27 10 40 14 112 31v19c0 50 -15 68 -56 68c-16 0 -29 -3 -49 -10v-51h-44c-14 0 -19 5 -19 18c0 41 52 69 127 69c66 0 94 -26 94 -87v-174l11 -9l34 -3v-22h-89zM232 313v106
c-100 -26 -128 -44 -128 -83c0 -30 19 -50 49 -50c21 0 46 9 79 27z" />
    <glyph glyph-name="Lslash" unicode="&#x141;" horiz-adv-x="520" 
d="M197 407l94 62l26 -38l-120 -81v-304h225l14 16l17 120h52v-182h-479v41l64 5l17 14v231l-73 -50l-24 40l97 65v265l-17 14l-64 5v41h244v-41l-57 -5l-16 -14v-204z" />
    <glyph glyph-name="Oslash" unicode="&#xd8;" horiz-adv-x="732" 
d="M619 724l-60 -101c87 -69 130 -165 130 -287c0 -206 -134 -352 -323 -352c-61 0 -115 14 -165 44l-63 -105l-39 27l63 106c-78 65 -119 162 -119 279c0 206 135 352 323 352c57 0 105 -12 153 -38l59 99zM521 562l-286 -477c43 -34 80 -48 132 -48c135 0 222 118 222 299
c0 95 -23 171 -68 226zM202 122l284 473c-38 28 -73 39 -120 39c-136 0 -223 -116 -223 -296c0 -90 19 -161 59 -216z" />
    <glyph glyph-name="OE" unicode="&#x152;" horiz-adv-x="993" 
d="M553 549v122h376v-146h-56l-14 85l-14 15h-208v-253h140l15 14l10 73h47v-220h-47l-10 72l-15 15h-140v-280h244l15 16l16 101h53v-163h-412v123c-53 -91 -119 -131 -214 -131c-173 0 -296 142 -296 343c0 204 123 344 301 344c102 0 162 -38 209 -130zM347 627
c-121 0 -200 -115 -200 -291c0 -178 79 -292 203 -292s204 114 204 290c0 180 -80 293 -207 293z" />
    <glyph glyph-name="ordmasculine" unicode="&#xba;" horiz-adv-x="367" 
d="M185 553c84 0 145 -63 145 -150c0 -88 -61 -150 -147 -150c-85 0 -146 62 -146 149c0 90 60 151 148 151zM182 527c-52 0 -86 -49 -86 -123c0 -76 34 -125 87 -125s88 49 88 123c0 76 -35 125 -89 125z" />
    <glyph glyph-name="ae" unicode="&#xe6;" horiz-adv-x="725" 
d="M166 347h-70c-22 0 -30 8 -30 28c0 68 78 115 192 115c67 0 106 -18 128 -59c41 42 79 59 133 59c103 0 163 -72 163 -196c0 -8 0 -20 -1 -36h-279v-139c47 -46 91 -65 150 -65c51 0 83 13 130 52v-55c-56 -42 -104 -60 -162 -60c-67 0 -122 23 -177 73
c-71 -51 -121 -71 -176 -71c-75 0 -124 49 -124 125c0 62 29 101 98 130c43 18 67 25 183 55v32c0 82 -23 111 -88 111c-25 0 -44 -4 -70 -15v-84zM324 92v176c-82 -25 -95 -29 -123 -42c-50 -23 -74 -54 -74 -97c0 -49 30 -82 73 -82c36 0 70 12 124 45zM402 297h190v16
c0 91 -28 133 -89 133c-39 0 -69 -20 -85 -59c-10 -25 -14 -44 -16 -90z" />
    <glyph glyph-name="dotlessi" unicode="&#x131;" horiz-adv-x="280" 
d="M150 486h39v-429l17 -16l54 -5v-36h-225v36l53 5l17 16v362h-70v31z" />
    <glyph glyph-name="lslash" unicode="&#x142;" horiz-adv-x="282" 
d="M149 736h38v-316l86 57l26 -39l-112 -75v-306l18 -16l58 -5v-36h-235v36l59 5l17 16v250l-75 -51l-24 40l99 66v307h-77v31z" />
    <glyph glyph-name="oslash" unicode="&#xf8;" horiz-adv-x="539" 
d="M423 560l34 -19l-52 -93c68 -54 97 -115 97 -204c0 -149 -96 -253 -234 -253c-42 0 -72 8 -112 28l-58 -99l-32 20l58 102c-61 55 -87 114 -87 197c0 149 95 251 233 251c37 0 62 -5 101 -21zM159 104l185 318c-24 17 -47 24 -74 24c-86 0 -141 -80 -141 -204
c0 -53 9 -93 30 -138zM371 392l-185 -323c24 -24 49 -34 82 -34c86 0 142 80 142 205c0 62 -12 109 -39 152z" />
    <glyph glyph-name="oe" unicode="&#x153;" horiz-adv-x="819" 
d="M775 263h-297c0 -134 58 -209 164 -209c44 0 76 12 133 52v-55c-66 -44 -109 -60 -165 -60c-74 0 -126 29 -176 99c-50 -67 -107 -99 -175 -99c-130 0 -222 104 -222 250s92 249 224 249c77 0 133 -30 179 -97c42 67 94 97 168 97c104 0 168 -74 168 -195
c0 -7 0 -18 -1 -32zM260 446c-78 0 -129 -81 -129 -205s52 -206 130 -206c79 0 130 81 130 205c0 127 -51 206 -131 206zM686 305v11c0 84 -32 130 -90 130c-61 0 -100 -48 -114 -141h204z" />
    <glyph glyph-name="germandbls" unicode="&#xdf;" horiz-adv-x="609" 
d="M88 57v392c0 175 99 292 246 292c105 0 167 -61 167 -164c0 -36 -5 -66 -18 -111c-13 2 -19 2 -26 2c-54 0 -88 -30 -88 -78c0 -39 16 -56 88 -94c53 -28 67 -38 88 -59c25 -27 36 -55 36 -91c0 -87 -71 -153 -166 -153c-28 0 -64 6 -116 20v132h50l10 -87
c20 -15 38 -21 61 -21c51 0 86 35 86 86c0 44 -15 60 -93 104c-100 56 -123 81 -123 137c0 49 26 93 72 118c13 8 24 12 50 19c7 33 10 53 10 71c0 73 -43 123 -105 123c-50 0 -95 -31 -118 -81c-20 -43 -25 -82 -25 -183v-372l8 -18l66 -6v-35h-229v38l58 3z" />
    <glyph glyph-name="Adieresis" unicode="&#xc4;" horiz-adv-x="639" 
d="M284 679h66l240 -626l60 -12v-41h-227v41l62 5l7 14l-72 191h-236l-71 -191l10 -14l65 -5v-41h-196v41l58 12zM300 574l-99 -277h202zM227 868c28 0 50 -23 50 -51s-22 -50 -50 -50s-51 22 -51 50c0 29 22 51 51 51zM413 868c28 0 50 -23 50 -51s-22 -50 -50 -50
s-51 22 -51 50c0 29 22 51 51 51z" />
    <glyph glyph-name="Aacute" unicode="&#xc1;" horiz-adv-x="639" 
d="M284 679h66l240 -626l60 -12v-41h-227v41l62 5l7 14l-72 191h-236l-71 -191l10 -14l65 -5v-41h-196v41l58 12zM300 574l-99 -277h202zM373 892h100l-141 -148h-50z" />
    <glyph glyph-name="Agrave" unicode="&#xc0;" horiz-adv-x="639" 
d="M284 679h66l240 -626l60 -12v-41h-227v41l62 5l7 14l-72 191h-236l-71 -191l10 -14l65 -5v-41h-196v41l58 12zM300 574l-99 -277h202zM185 891h99l85 -148h-50z" />
    <glyph glyph-name="Acircumflex" unicode="&#xc2;" horiz-adv-x="639" 
d="M284 679h66l240 -626l60 -12v-41h-227v41l62 5l7 14l-72 191h-236l-71 -191l10 -14l65 -5v-41h-196v41l58 12zM300 574l-99 -277h202zM288 891h64l110 -148h-54l-88 96l-87 -96h-55z" />
    <glyph glyph-name="Atilde" unicode="&#xc3;" horiz-adv-x="639" 
d="M284 679h66l240 -626l60 -12v-41h-227v41l62 5l7 14l-72 191h-236l-71 -191l10 -14l65 -5v-41h-196v41l58 12zM300 574l-99 -277h202zM431 878h41c1 -73 -29 -113 -83 -113c-26 0 -48 7 -93 30c-30 15 -40 19 -52 19c-22 0 -34 -21 -34 -58h-43c0 72 29 112 82 112
c26 0 47 -7 94 -33c25 -13 38 -18 51 -18c24 0 35 19 37 61z" />
    <glyph glyph-name="Aring" unicode="&#xc5;" horiz-adv-x="639" 
d="M284 679h66l240 -626l60 -12v-41h-227v41l62 5l7 14l-72 191h-236l-71 -191l10 -14l65 -5v-41h-196v41l58 12zM300 574l-99 -277h202zM307 966c64 0 117 -53 117 -117c0 -65 -53 -117 -118 -117s-117 52 -117 117c0 66 52 117 118 117zM305 922c-40 0 -72 -33 -72 -73
s33 -73 73 -73s74 33 74 73c0 41 -33 73 -75 73z" />
    <glyph glyph-name="Edieresis" unicode="&#xcb;" horiz-adv-x="576" 
d="M33 0v41l57 5l17 14v551l-17 14l-57 5v41h479v-146h-56l-14 85l-14 15h-231v-253h164l14 14l10 73h47v-220h-47l-10 72l-14 15h-164v-280h268l14 16l17 101h52v-163h-515zM196 868c28 0 50 -23 50 -51s-22 -50 -50 -50s-51 22 -51 50c0 29 22 51 51 51zM382 868
c28 0 50 -23 50 -51s-22 -50 -50 -50s-51 22 -51 50c0 29 22 51 51 51z" />
    <glyph glyph-name="Eacute" unicode="&#xc9;" horiz-adv-x="576" 
d="M33 0v41l57 5l17 14v551l-17 14l-57 5v41h479v-146h-56l-14 85l-14 15h-231v-253h164l14 14l10 73h47v-220h-47l-10 72l-14 15h-164v-280h268l14 16l17 101h52v-163h-515zM341 892h100l-141 -148h-50z" />
    <glyph glyph-name="Egrave" unicode="&#xc8;" horiz-adv-x="576" 
d="M33 0v41l57 5l17 14v551l-17 14l-57 5v41h479v-146h-56l-14 85l-14 15h-231v-253h164l14 14l10 73h47v-220h-47l-10 72l-14 15h-164v-280h268l14 16l17 101h52v-163h-515zM154 891h99l85 -148h-50z" />
    <glyph glyph-name="Ecircumflex" unicode="&#xca;" horiz-adv-x="576" 
d="M33 0v41l57 5l17 14v551l-17 14l-57 5v41h479v-146h-56l-14 85l-14 15h-231v-253h164l14 14l10 73h47v-220h-47l-10 72l-14 15h-164v-280h268l14 16l17 101h52v-163h-515zM256 891h64l110 -148h-54l-88 96l-87 -96h-55z" />
    <glyph glyph-name="Idieresis" unicode="&#xcf;" horiz-adv-x="324" 
d="M35 0v41l64 5l17 14v551l-17 14l-64 5v41h254v-41l-64 -5l-17 -14v-551l17 -14l64 -5v-41h-254zM69 868c28 0 50 -23 50 -51s-22 -50 -50 -50s-51 22 -51 50c0 29 22 51 51 51zM255 868c28 0 50 -23 50 -51s-22 -50 -50 -50s-51 22 -51 50c0 29 22 51 51 51z" />
    <glyph glyph-name="Iacute" unicode="&#xcd;" horiz-adv-x="324" 
d="M35 0v41l64 5l17 14v551l-17 14l-64 5v41h254v-41l-64 -5l-17 -14v-551l17 -14l64 -5v-41h-254zM215 892h100l-141 -148h-50z" />
    <glyph glyph-name="Igrave" unicode="&#xcc;" horiz-adv-x="324" 
d="M35 0v41l64 5l17 14v551l-17 14l-64 5v41h254v-41l-64 -5l-17 -14v-551l17 -14l64 -5v-41h-254zM28 891h99l85 -148h-50z" />
    <glyph glyph-name="Icircumflex" unicode="&#xce;" horiz-adv-x="324" 
d="M35 0v41l64 5l17 14v551l-17 14l-64 5v41h254v-41l-64 -5l-17 -14v-551l17 -14l64 -5v-41h-254zM130 891h64l110 -148h-54l-88 96l-87 -96h-55z" />
    <glyph glyph-name="Ntilde" unicode="&#xd1;" horiz-adv-x="713" 
d="M29 0v41l61 8l18 19v543l-18 14l-64 5v41h188v-25l341 -512v470l-18 18l-60 8v41h210v-41l-60 -8l-18 -18v-604h-66l-381 568v-500l18 -19l60 -8v-41h-211zM468 878h41c1 -73 -29 -113 -83 -113c-26 0 -48 7 -93 30c-30 15 -40 19 -52 19c-22 0 -34 -21 -34 -58h-43
c0 72 29 112 82 112c26 0 47 -7 94 -33c25 -13 38 -18 51 -18c24 0 35 19 37 61z" />
    <glyph glyph-name="Odieresis" unicode="&#xd6;" horiz-adv-x="732" 
d="M371 687c183 0 318 -149 318 -351c0 -206 -134 -352 -322 -352c-190 0 -324 145 -324 351c0 208 134 352 328 352zM364 634c-131 0 -216 -117 -216 -297c0 -182 86 -300 219 -300c131 0 217 117 217 297c0 185 -84 300 -220 300zM273 868c28 0 50 -23 50 -51
s-22 -50 -50 -50s-51 22 -51 50c0 29 22 51 51 51zM459 868c28 0 50 -23 50 -51s-22 -50 -50 -50s-51 22 -51 50c0 29 22 51 51 51z" />
    <glyph glyph-name="Oacute" unicode="&#xd3;" horiz-adv-x="732" 
d="M371 687c183 0 318 -149 318 -351c0 -206 -134 -352 -322 -352c-190 0 -324 145 -324 351c0 208 134 352 328 352zM364 634c-131 0 -216 -117 -216 -297c0 -182 86 -300 219 -300c131 0 217 117 217 297c0 185 -84 300 -220 300zM419 892h100l-141 -148h-50z" />
    <glyph glyph-name="Ograve" unicode="&#xd2;" horiz-adv-x="732" 
d="M371 687c183 0 318 -149 318 -351c0 -206 -134 -352 -322 -352c-190 0 -324 145 -324 351c0 208 134 352 328 352zM364 634c-131 0 -216 -117 -216 -297c0 -182 86 -300 219 -300c131 0 217 117 217 297c0 185 -84 300 -220 300zM232 891h99l85 -148h-50z" />
    <glyph glyph-name="Ocircumflex" unicode="&#xd4;" horiz-adv-x="732" 
d="M371 687c183 0 318 -149 318 -351c0 -206 -134 -352 -322 -352c-190 0 -324 145 -324 351c0 208 134 352 328 352zM364 634c-131 0 -216 -117 -216 -297c0 -182 86 -300 219 -300c131 0 217 117 217 297c0 185 -84 300 -220 300zM334 891h64l110 -148h-54l-88 96l-87 -96
h-55z" />
    <glyph glyph-name="Otilde" unicode="&#xd5;" horiz-adv-x="732" 
d="M371 687c183 0 318 -149 318 -351c0 -206 -134 -352 -322 -352c-190 0 -324 145 -324 351c0 208 134 352 328 352zM364 634c-131 0 -216 -117 -216 -297c0 -182 86 -300 219 -300c131 0 217 117 217 297c0 185 -84 300 -220 300zM477 878h41c1 -73 -29 -113 -83 -113
c-26 0 -48 7 -93 30c-30 15 -40 19 -52 19c-22 0 -34 -21 -34 -58h-43c0 72 29 112 82 112c26 0 47 -7 94 -33c25 -13 38 -18 51 -18c24 0 35 19 37 61z" />
    <glyph glyph-name="Scaron" unicode="&#x160;" horiz-adv-x="556" 
d="M60 20v176h59l12 -115l13 -17c34 -16 66 -23 110 -23c97 0 153 45 153 123c0 41 -13 65 -48 88c-25 17 -32 20 -125 60c-122 51 -163 96 -163 176c0 119 90 195 233 195c54 0 103 -8 168 -28v-155h-52l-15 95l-15 17c-30 15 -55 21 -90 21c-82 0 -136 -47 -136 -119
c0 -41 15 -66 53 -91c21 -13 47 -25 121 -56c121 -49 162 -95 162 -179c0 -122 -104 -200 -264 -200c-66 0 -120 10 -176 32zM328 743h-64l-110 148h54l88 -95l87 95h55z" />
    <glyph glyph-name="Udieresis" unicode="&#xdc;" horiz-adv-x="694" 
d="M25 671h245v-41l-62 -5l-17 -14v-362c0 -139 54 -199 177 -199c125 0 179 60 179 199v355l-19 18l-60 8v41h211v-41l-60 -8l-18 -18v-364c0 -91 -13 -141 -45 -178c-42 -47 -117 -74 -207 -74c-105 0 -186 36 -222 98c-20 35 -28 80 -28 154v371l-17 14l-57 5v41z
M284 868c28 0 50 -23 50 -51s-22 -50 -50 -50s-51 22 -51 50c0 29 22 51 51 51zM470 868c28 0 50 -23 50 -51s-22 -50 -50 -50s-51 22 -51 50c0 29 22 51 51 51z" />
    <glyph glyph-name="Uacute" unicode="&#xda;" horiz-adv-x="694" 
d="M25 671h245v-41l-62 -5l-17 -14v-362c0 -139 54 -199 177 -199c125 0 179 60 179 199v355l-19 18l-60 8v41h211v-41l-60 -8l-18 -18v-364c0 -91 -13 -141 -45 -178c-42 -47 -117 -74 -207 -74c-105 0 -186 36 -222 98c-20 35 -28 80 -28 154v371l-17 14l-57 5v41z
M429 892h100l-141 -148h-50z" />
    <glyph glyph-name="Ugrave" unicode="&#xd9;" horiz-adv-x="694" 
d="M25 671h245v-41l-62 -5l-17 -14v-362c0 -139 54 -199 177 -199c125 0 179 60 179 199v355l-19 18l-60 8v41h211v-41l-60 -8l-18 -18v-364c0 -91 -13 -141 -45 -178c-42 -47 -117 -74 -207 -74c-105 0 -186 36 -222 98c-20 35 -28 80 -28 154v371l-17 14l-57 5v41z
M242 891h99l85 -148h-50z" />
    <glyph glyph-name="Ucircumflex" unicode="&#xdb;" horiz-adv-x="694" 
d="M25 671h245v-41l-62 -5l-17 -14v-362c0 -139 54 -199 177 -199c125 0 179 60 179 199v355l-19 18l-60 8v41h211v-41l-60 -8l-18 -18v-364c0 -91 -13 -141 -45 -178c-42 -47 -117 -74 -207 -74c-105 0 -186 36 -222 98c-20 35 -28 80 -28 154v371l-17 14l-57 5v41z
M344 891h64l110 -148h-54l-88 96l-87 -96h-55z" />
    <glyph glyph-name="Yacute" unicode="&#xdd;" horiz-adv-x="586" 
d="M-13 671h232v-41l-57 -5l-10 -11l153 -275l168 267l-9 14l-61 10v41h204v-41l-61 -12l-208 -333v-225l16 -14l68 -5v-41h-259v41l68 5l16 14v212l-199 349l-61 9v41zM346 892h100l-141 -148h-50z" />
    <glyph glyph-name="Zcaron" unicode="&#x17d;" horiz-adv-x="586" 
d="M67 671h467v-42l-380 -580h302l11 13l18 119h54v-181h-494v41l379 582h-267l-19 -13l-16 -94h-55v155zM325 743h-64l-110 148h54l88 -95l87 95h55z" />
    <glyph glyph-name="Ydieresis" unicode="&#x178;" horiz-adv-x="586" 
d="M-13 671h232v-41l-57 -5l-10 -11l153 -275l168 267l-9 14l-61 10v41h204v-41l-61 -12l-208 -333v-225l16 -14l68 -5v-41h-259v41l68 5l16 14v212l-199 349l-61 9v41zM200 868c28 0 50 -23 50 -51s-22 -50 -50 -50s-51 22 -51 50c0 29 22 51 51 51zM386 868
c28 0 50 -23 50 -51s-22 -50 -50 -50s-51 22 -51 50c0 29 22 51 51 51z" />
    <glyph glyph-name="adieresis" unicode="&#xe4;" horiz-adv-x="505" 
d="M347 0l-13 58c-73 -48 -116 -65 -165 -65c-76 0 -127 52 -127 127c0 59 31 99 100 127c49 19 71 26 192 56v32c0 82 -24 111 -90 111c-27 0 -47 -4 -78 -15v-84h-69c-23 0 -31 7 -31 29c0 67 82 114 200 114c106 0 151 -43 151 -143v-290l17 -16l53 -5v-36h-140zM334 92
v176c-86 -25 -101 -30 -135 -46c-48 -23 -69 -51 -69 -92c0 -50 31 -83 78 -83c34 0 67 12 126 45zM160 691c28 0 50 -23 50 -51s-22 -50 -50 -50s-51 22 -51 50c0 29 22 51 51 51zM346 691c28 0 50 -23 50 -51s-22 -50 -50 -50s-51 22 -51 50c0 29 22 51 51 51z" />
    <glyph glyph-name="aacute" unicode="&#xe1;" horiz-adv-x="505" 
d="M347 0l-13 58c-73 -48 -116 -65 -165 -65c-76 0 -127 52 -127 127c0 59 31 99 100 127c49 19 71 26 192 56v32c0 82 -24 111 -90 111c-27 0 -47 -4 -78 -15v-84h-69c-23 0 -31 7 -31 29c0 67 82 114 200 114c106 0 151 -43 151 -143v-290l17 -16l53 -5v-36h-140zM334 92
v176c-86 -25 -101 -30 -135 -46c-48 -23 -69 -51 -69 -92c0 -50 31 -83 78 -83c34 0 67 12 126 45zM312 736h99l-146 -190h-50z" />
    <glyph glyph-name="agrave" unicode="&#xe0;" horiz-adv-x="505" 
d="M347 0l-13 58c-73 -48 -116 -65 -165 -65c-76 0 -127 52 -127 127c0 59 31 99 100 127c49 19 71 26 192 56v32c0 82 -24 111 -90 111c-27 0 -47 -4 -78 -15v-84h-69c-23 0 -31 7 -31 29c0 67 82 114 200 114c106 0 151 -43 151 -143v-290l17 -16l53 -5v-36h-140zM334 92
v176c-86 -25 -101 -30 -135 -46c-48 -23 -69 -51 -69 -92c0 -50 31 -83 78 -83c34 0 67 12 126 45zM106 736h99l97 -190h-50z" />
    <glyph glyph-name="acircumflex" unicode="&#xe2;" horiz-adv-x="505" 
d="M347 0l-13 58c-73 -48 -116 -65 -165 -65c-76 0 -127 52 -127 127c0 59 31 99 100 127c49 19 71 26 192 56v32c0 82 -24 111 -90 111c-27 0 -47 -4 -78 -15v-84h-69c-23 0 -31 7 -31 29c0 67 82 114 200 114c106 0 151 -43 151 -143v-290l17 -16l53 -5v-36h-140zM334 92
v176c-86 -25 -101 -30 -135 -46c-48 -23 -69 -51 -69 -92c0 -50 31 -83 78 -83c34 0 67 12 126 45zM221 736h64l110 -190h-54l-88 141l-87 -141h-55z" />
    <glyph glyph-name="atilde" unicode="&#xe3;" horiz-adv-x="505" 
d="M347 0l-13 58c-73 -48 -116 -65 -165 -65c-76 0 -127 52 -127 127c0 59 31 99 100 127c49 19 71 26 192 56v32c0 82 -24 111 -90 111c-27 0 -47 -4 -78 -15v-84h-69c-23 0 -31 7 -31 29c0 67 82 114 200 114c106 0 151 -43 151 -143v-290l17 -16l53 -5v-36h-140zM334 92
v176c-86 -25 -101 -30 -135 -46c-48 -23 -69 -51 -69 -92c0 -50 31 -83 78 -83c34 0 67 12 126 45zM364 708h41v-17c0 -61 -34 -103 -83 -103c-28 0 -50 7 -97 32c-28 14 -38 18 -48 18c-21 0 -35 -21 -35 -50c0 -4 0 -8 1 -15h-43c0 40 2 50 9 69c13 33 39 51 74 51
c26 0 44 -6 87 -30c31 -18 43 -22 56 -22c26 0 38 21 38 67z" />
    <glyph glyph-name="aring" unicode="&#xe5;" horiz-adv-x="505" 
d="M347 0l-13 58c-73 -48 -116 -65 -165 -65c-76 0 -127 52 -127 127c0 59 31 99 100 127c49 19 71 26 192 56v32c0 82 -24 111 -90 111c-27 0 -47 -4 -78 -15v-84h-69c-23 0 -31 7 -31 29c0 67 82 114 200 114c106 0 151 -43 151 -143v-290l17 -16l53 -5v-36h-140zM334 92
v176c-86 -25 -101 -30 -135 -46c-48 -23 -69 -51 -69 -92c0 -50 31 -83 78 -83c34 0 67 12 126 45zM254 781c64 0 116 -52 116 -117c0 -66 -52 -118 -118 -118s-117 52 -117 118c0 67 51 117 119 117zM251 736c-39 0 -71 -33 -71 -73s32 -72 72 -72s73 32 73 72
c0 41 -33 73 -74 73z" />
    <glyph glyph-name="edieresis" unicode="&#xeb;" horiz-adv-x="491" 
d="M448 106v-55c-66 -42 -123 -60 -186 -60c-134 0 -225 99 -225 245c0 149 96 254 231 254c111 0 180 -74 180 -194c0 -7 0 -18 -1 -33h-324c0 -46 3 -67 12 -98c23 -74 80 -117 155 -117c50 0 89 14 158 58zM128 305h231c0 47 -3 68 -14 90c-18 33 -48 51 -88 51
c-71 0 -118 -52 -129 -141zM164 691c28 0 50 -23 50 -51s-22 -50 -50 -50s-51 22 -51 50c0 29 22 51 51 51zM350 691c28 0 50 -23 50 -51s-22 -50 -50 -50s-51 22 -51 50c0 29 22 51 51 51z" />
    <glyph glyph-name="eacute" unicode="&#xe9;" horiz-adv-x="491" 
d="M448 106v-55c-66 -42 -123 -60 -186 -60c-134 0 -225 99 -225 245c0 149 96 254 231 254c111 0 180 -74 180 -194c0 -7 0 -18 -1 -33h-324c0 -46 3 -67 12 -98c23 -74 80 -117 155 -117c50 0 89 14 158 58zM128 305h231c0 47 -3 68 -14 90c-18 33 -48 51 -88 51
c-71 0 -118 -52 -129 -141zM316 736h99l-146 -190h-50z" />
    <glyph glyph-name="egrave" unicode="&#xe8;" horiz-adv-x="491" 
d="M448 106v-55c-66 -42 -123 -60 -186 -60c-134 0 -225 99 -225 245c0 149 96 254 231 254c111 0 180 -74 180 -194c0 -7 0 -18 -1 -33h-324c0 -46 3 -67 12 -98c23 -74 80 -117 155 -117c50 0 89 14 158 58zM128 305h231c0 47 -3 68 -14 90c-18 33 -48 51 -88 51
c-71 0 -118 -52 -129 -141zM111 736h99l97 -190h-50z" />
    <glyph glyph-name="ecircumflex" unicode="&#xea;" horiz-adv-x="491" 
d="M448 106v-55c-66 -42 -123 -60 -186 -60c-134 0 -225 99 -225 245c0 149 96 254 231 254c111 0 180 -74 180 -194c0 -7 0 -18 -1 -33h-324c0 -46 3 -67 12 -98c23 -74 80 -117 155 -117c50 0 89 14 158 58zM128 305h231c0 47 -3 68 -14 90c-18 33 -48 51 -88 51
c-71 0 -118 -52 -129 -141zM224 736h64l110 -190h-54l-88 141l-87 -141h-55z" />
    <glyph glyph-name="idieresis" unicode="&#xef;" horiz-adv-x="280" 
d="M150 486h39v-429l17 -16l54 -5v-36h-224v36l52 5l17 16v362h-69v31zM48 691c28 0 50 -23 50 -51s-22 -50 -50 -50s-51 22 -51 50c0 29 22 51 51 51zM234 691c28 0 50 -23 50 -51s-22 -50 -50 -50s-51 22 -51 50c0 29 22 51 51 51z" />
    <glyph glyph-name="iacute" unicode="&#xed;" horiz-adv-x="280" 
d="M150 486h39v-429l17 -16l54 -5v-36h-225v36l53 5l17 16v362h-70v31zM199 736h99l-146 -190h-50z" />
    <glyph glyph-name="igrave" unicode="&#xec;" horiz-adv-x="280" 
d="M150 486h39v-429l17 -16l54 -5v-36h-225v36l53 5l17 16v362h-70v31zM-6 736h99l97 -190h-50z" />
    <glyph glyph-name="icircumflex" unicode="&#xee;" horiz-adv-x="280" 
d="M150 486h39v-429l17 -16l54 -5v-36h-225v36l53 5l17 16v362h-70v31zM108 736h64l110 -190h-54l-88 141l-87 -141h-55z" />
    <glyph glyph-name="ntilde" unicode="&#xf1;" horiz-adv-x="568" 
d="M30 0v36l54 5l17 16v362h-71v31l116 36h38v-55c88 47 122 59 166 59c83 0 130 -55 130 -151v-282l17 -16l54 -5v-36h-219v36l48 5l17 16v265c0 71 -29 102 -95 102c-37 0 -65 -7 -118 -32v-335l17 -16l48 -5v-36h-219zM395 708h41v-17c0 -61 -34 -103 -83 -103
c-28 0 -50 7 -97 32c-28 14 -38 18 -48 18c-21 0 -35 -21 -35 -50c0 -4 0 -8 1 -15h-43c0 40 2 50 9 69c13 33 39 51 74 51c26 0 44 -6 87 -30c31 -18 43 -22 56 -22c26 0 38 21 38 67z" />
    <glyph glyph-name="odieresis" unicode="&#xf6;" horiz-adv-x="539" 
d="M271 490c134 0 231 -105 231 -250s-97 -249 -233 -249s-232 103 -232 249c0 149 95 250 234 250zM267 446c-82 0 -136 -81 -136 -205s55 -206 138 -206c84 0 139 81 139 205c0 126 -55 206 -141 206zM177 691c28 0 50 -23 50 -51s-22 -50 -50 -50s-51 22 -51 50
c0 29 22 51 51 51zM363 691c28 0 50 -23 50 -51s-22 -50 -50 -50s-51 22 -51 50c0 29 22 51 51 51z" />
    <glyph glyph-name="oacute" unicode="&#xf3;" horiz-adv-x="539" 
d="M271 490c134 0 231 -105 231 -250s-97 -249 -233 -249s-232 103 -232 249c0 149 95 250 234 250zM267 446c-82 0 -136 -81 -136 -205s55 -206 138 -206c84 0 139 81 139 205c0 126 -55 206 -141 206zM329 736h99l-146 -190h-50z" />
    <glyph glyph-name="ograve" unicode="&#xf2;" horiz-adv-x="539" 
d="M271 490c134 0 231 -105 231 -250s-97 -249 -233 -249s-232 103 -232 249c0 149 95 250 234 250zM267 446c-82 0 -136 -81 -136 -205s55 -206 138 -206c84 0 139 81 139 205c0 126 -55 206 -141 206zM123 736h99l97 -190h-50z" />
    <glyph glyph-name="ocircumflex" unicode="&#xf4;" horiz-adv-x="539" 
d="M271 490c134 0 231 -105 231 -250s-97 -249 -233 -249s-232 103 -232 249c0 149 95 250 234 250zM267 446c-82 0 -136 -81 -136 -205s55 -206 138 -206c84 0 139 81 139 205c0 126 -55 206 -141 206zM238 736h64l110 -190h-54l-88 141l-87 -141h-55z" />
    <glyph glyph-name="otilde" unicode="&#xf5;" horiz-adv-x="539" 
d="M271 490c134 0 231 -105 231 -250s-97 -249 -233 -249s-232 103 -232 249c0 149 95 250 234 250zM267 446c-82 0 -136 -81 -136 -205s55 -206 138 -206c84 0 139 81 139 205c0 126 -55 206 -141 206zM381 708h41v-17c0 -61 -34 -103 -83 -103c-28 0 -50 7 -97 32
c-28 14 -38 18 -48 18c-21 0 -35 -21 -35 -50c0 -4 0 -8 1 -15h-43c0 40 2 50 9 69c13 33 39 51 74 51c26 0 44 -6 87 -30c31 -18 43 -22 56 -22c26 0 38 21 38 67z" />
    <glyph glyph-name="scaron" unicode="&#x161;" horiz-adv-x="400" 
d="M344 469v-113h-49l-8 71c-29 14 -50 19 -76 19c-50 0 -81 -26 -81 -69c0 -40 22 -63 90 -94c74 -34 85 -40 107 -61c21 -19 32 -47 32 -81c0 -94 -70 -150 -188 -150c-46 0 -85 6 -129 21v130h48l12 -85c31 -16 56 -22 88 -22c54 0 91 32 91 80c0 24 -10 45 -29 60
c-16 12 -27 18 -73 39c-103 48 -129 76 -129 139c0 86 66 137 177 137c46 0 77 -6 117 -21zM65 736h55l87 -141l88 141h54l-110 -190h-64z" />
    <glyph glyph-name="udieresis" unicode="&#xfc;" horiz-adv-x="569" 
d="M142 491h38v-331c0 -72 30 -105 97 -105c37 0 70 8 116 29v339h-71v31l116 37h38v-434l18 -16l47 -5v-36h-148v56c-73 -49 -113 -65 -165 -65c-84 0 -131 55 -131 152v280h-71v31zM192 691c28 0 50 -23 50 -51s-22 -50 -50 -50s-51 22 -51 50c0 29 22 51 51 51zM378 691
c28 0 50 -23 50 -51s-22 -50 -50 -50s-51 22 -51 50c0 29 22 51 51 51z" />
    <glyph glyph-name="uacute" unicode="&#xfa;" horiz-adv-x="569" 
d="M142 491h38v-331c0 -72 30 -105 97 -105c37 0 70 8 116 29v339h-71v31l116 37h38v-434l18 -16l47 -5v-36h-148v56c-73 -49 -113 -65 -165 -65c-84 0 -131 55 -131 152v280h-71v31zM344 736h99l-146 -190h-50z" />
    <glyph glyph-name="ugrave" unicode="&#xf9;" horiz-adv-x="569" 
d="M142 491h38v-331c0 -72 30 -105 97 -105c37 0 70 8 116 29v339h-71v31l116 37h38v-434l18 -16l47 -5v-36h-148v56c-73 -49 -113 -65 -165 -65c-84 0 -131 55 -131 152v280h-71v31zM139 736h99l97 -190h-50z" />
    <glyph glyph-name="ucircumflex" unicode="&#xfb;" horiz-adv-x="569" 
d="M142 491h38v-331c0 -72 30 -105 97 -105c37 0 70 8 116 29v339h-71v31l116 37h38v-434l18 -16l47 -5v-36h-148v56c-73 -49 -113 -65 -165 -65c-84 0 -131 55 -131 152v280h-71v31zM252 736h64l110 -190h-54l-88 141l-87 -141h-55z" />
    <glyph glyph-name="yacute" unicode="&#xfd;" horiz-adv-x="495" 
d="M-1 481h217v-36l-53 -5l-12 -16l120 -311l125 311l-8 16l-54 5v36h178v-36l-58 -9l-200 -486c-48 -116 -98 -168 -160 -168c-41 0 -69 23 -69 56c0 20 8 36 26 54l96 -38c31 35 55 79 81 150l-168 434l-61 7v36zM326 736h99l-146 -190h-50z" />
    <glyph glyph-name="zcaron" unicode="&#x17e;" horiz-adv-x="468" 
d="M45 0v50l267 385h-185l-14 -16l-11 -77h-47v139h361v-38l-277 -397h215l15 16l11 85h51v-147h-386zM104 736h55l87 -141l88 141h54l-110 -190h-64z" />
    <glyph glyph-name="ydieresis" unicode="&#xff;" horiz-adv-x="495" 
d="M-1 481h217v-36l-53 -5l-12 -16l120 -311l125 311l-8 16l-54 5v36h178v-36l-58 -9l-200 -486c-48 -116 -98 -168 -160 -168c-41 0 -69 23 -69 56c0 20 8 36 26 54l96 -38c31 35 55 79 81 150l-168 434l-61 7v36zM174 691c28 0 50 -23 50 -51s-22 -50 -50 -50
s-51 22 -51 50c0 29 22 51 51 51zM360 691c28 0 50 -23 50 -51s-22 -50 -50 -50s-51 22 -51 50c0 29 22 51 51 51z" />
    <glyph glyph-name="Ccedilla" unicode="&#xc7;" horiz-adv-x="632" 
d="M382 -12v-49c9 1 11 1 17 1c50 0 78 -26 78 -72c0 -56 -45 -91 -117 -91c-22 0 -38 2 -70 10v36c22 -6 37 -8 58 -8c42 0 68 17 68 43c0 23 -19 37 -50 37c-5 0 -7 0 -17 -2h-4v97c-179 18 -302 160 -302 350c0 204 141 343 347 343c61 0 110 -8 198 -34v-154h-56l-15 91
l-13 18c-46 20 -73 26 -113 26c-152 0 -245 -111 -245 -291c0 -185 99 -298 261 -298c31 0 54 3 87 13l16 16l24 111h54v-158c-74 -25 -135 -35 -206 -35z" />
    <glyph glyph-name="Eth" unicode="&#xd0;" horiz-adv-x="693" 
d="M107 327h-92v48h92v236l-17 14l-57 5v41h247c235 0 370 -123 370 -335c0 -132 -54 -235 -154 -293c-53 -31 -115 -43 -216 -43h-247v41l57 5l17 14v267zM197 375h166v-48h-166v-281h79c183 0 271 96 271 293c0 191 -90 286 -271 286h-79v-250z" />
    <glyph glyph-name="Thorn" unicode="&#xde;" horiz-adv-x="557" 
d="M34 671h242v-41l-62 -5l-16 -14v-66h55c195 0 279 -58 279 -191c0 -138 -96 -220 -259 -220c-19 0 -44 2 -75 5v-79l16 -14l62 -5v-41h-242v41l58 5l16 14v551l-16 14l-58 5v41zM198 498v-312c14 -2 46 -4 66 -4c115 0 176 57 176 166c0 101 -61 152 -183 152
c-12 0 -19 0 -59 -2z" />
    <glyph glyph-name="ccedilla" unicode="&#xe7;" horiz-adv-x="446" 
d="M253 -7v-54c8 1 13 1 19 1c48 0 76 -27 76 -72c0 -56 -45 -91 -117 -91c-23 0 -33 1 -70 10v36c22 -6 38 -8 59 -8c42 0 67 16 67 43c0 22 -19 36 -50 36c-6 0 -10 0 -21 -1v104c-112 22 -179 113 -179 243c0 150 96 250 240 250c89 0 147 -37 147 -95
c0 -32 -22 -54 -54 -54c-18 0 -31 4 -47 14v82c-17 9 -31 13 -50 13c-86 0 -145 -82 -145 -200c0 -123 64 -198 169 -198c44 0 77 11 128 42v-52c-63 -35 -109 -49 -162 -49h-10z" />
    <glyph glyph-name="eth" unicode="&#xf0;" horiz-adv-x="533" 
d="M339 480l7 -1c-26 41 -52 77 -80 111l-128 -77l-22 38l117 71l-36 41l-81 7v29l113 34l71 -73l110 66l22 -39l-103 -62c119 -140 168 -245 168 -362c0 -158 -98 -272 -233 -272c-132 0 -227 105 -227 251c0 143 100 244 242 244c20 0 29 -1 60 -6zM371 431
c-32 9 -55 13 -79 13c-103 0 -162 -74 -162 -202c0 -126 56 -209 142 -209c85 0 140 85 140 215c0 79 -12 130 -41 183z" />
    <glyph glyph-name="thorn" unicode="&#xfe;" horiz-adv-x="557" 
d="M28 -218v36l53 5l17 16v830h-77v31l122 36h38v-305c60 43 99 59 148 59c113 0 193 -97 193 -234c0 -157 -98 -259 -248 -259c-26 0 -58 3 -93 9v-167l18 -16l63 -5v-36h-234zM181 394v-336c33 -11 60 -16 86 -16c100 0 167 81 167 202c0 112 -57 183 -147 183
c-34 0 -64 -9 -106 -33z" />
    <glyph glyph-name="onesuperior" unicode="&#xb9;" horiz-adv-x="350" 
d="M194 668h25v-367l5 -6l71 -3v-34h-223v35l74 3l5 7v308l-99 -17v34z" />
    <glyph glyph-name="twosuperior" unicode="&#xb2;" horiz-adv-x="350" 
d="M105 314h168l12 50h39v-106h-304v44c102 78 110 84 139 111c56 53 78 90 78 135c0 49 -30 80 -77 80c-18 0 -33 -4 -50 -12v-62c-16 -10 -23 -12 -36 -12c-25 0 -41 15 -41 37c0 48 65 89 141 89c81 0 137 -47 137 -114c0 -68 -47 -122 -206 -240z" />
    <glyph glyph-name="threesuperior" unicode="&#xb3;" horiz-adv-x="350" 
d="M103 613v-55c-11 -7 -20 -10 -32 -10c-24 0 -41 15 -41 37c0 45 63 83 138 83c78 0 132 -42 132 -103c0 -44 -25 -74 -78 -93c59 -9 94 -46 94 -97c0 -71 -70 -124 -165 -124c-71 0 -131 32 -131 70c0 20 18 35 41 35c8 0 14 -1 23 -4l21 -51c18 -9 29 -12 46 -12
c55 0 95 37 95 88c0 44 -31 68 -88 68c-12 0 -27 -1 -39 -3v45h9c71 0 103 22 103 70c0 44 -29 71 -75 71c-20 0 -37 -5 -53 -15z" />
    <glyph glyph-name="middot" unicode="&#xad;" horiz-adv-x="279" 
d="M141 399c34 0 62 -29 62 -64s-28 -63 -63 -63s-64 28 -64 63c0 36 29 64 65 64z" />
    <glyph glyph-name="sfthyphen" unicode="&#xb0;" horiz-adv-x="319" 
d="M47 274h225v-67h-225v67z" />
    <glyph glyph-name="degree" unicode="&#x2212;" horiz-adv-x="330" 
d="M167 710c74 0 136 -62 136 -138c0 -77 -62 -139 -139 -139s-137 61 -137 138c0 79 61 139 140 139zM164 670c-53 0 -97 -44 -97 -98c0 -55 44 -99 98 -99s98 44 98 99s-43 98 -99 98z" />
    <glyph glyph-name="minus" unicode="&#xd7;" horiz-adv-x="833" 
d="M124 327h585v-58h-585v58z" />
    <glyph glyph-name="multiply" unicode="&#xf7;" horiz-adv-x="833" 
d="M186 571l233 -233l232 233l40 -40l-232 -233l232 -232l-40 -40l-232 232l-233 -232l-39 40l232 232l-232 233z" />
    <glyph glyph-name="divide" unicode="&#x2122;" horiz-adv-x="833" 
d="M418 530c30 0 55 -25 55 -56s-25 -56 -56 -56s-56 25 -56 56s25 56 57 56zM418 178c30 0 55 -25 55 -56s-25 -56 -56 -56s-56 25 -56 56s25 56 57 56zM124 327h585v-58h-585v58z" />
    <glyph glyph-name="trademark" unicode="&#xb1;" horiz-adv-x="822" 
d="M256 639v-214l38 -4v-22h-122v21l39 4v215h-52l-8 -6l-6 -40h-27v69h229v-69h-26l-6 40l-7 6h-52zM378 399v22l31 4v209l-32 5v23h102v-12l68 -180l69 179v13h100v-23l-32 -5v-209l32 -5v-21h-107v21l30 5v212l-92 -238h-22l-88 238v-212l31 -4v-22h-90z" />
    <glyph glyph-name="plusminus" unicode="&#xbd;" horiz-adv-x="833" 
d="M124 77h585v-58h-585v58zM387 350h-263v58h263v168h58v-168h264v-58h-264v-168h-58v168z" />
    <glyph glyph-name="onehalf" unicode="&#xbc;" horiz-adv-x="885" 
d="M194 668h25v-367l5 -6l71 -3v-34h-223v35l74 3l5 7v308l-99 -17v34zM626 671h61l-428 -671h-61zM640 56h168l12 50h39v-106h-304v44c85 64 109 83 139 111c57 53 78 90 78 135c0 50 -29 80 -77 80c-19 0 -31 -3 -50 -12v-62c-16 -10 -23 -12 -35 -12c-26 0 -42 15 -42 37
c0 48 64 89 140 89c82 0 138 -47 138 -114c0 -48 -28 -93 -95 -152c-27 -24 -45 -38 -111 -88z" />
    <glyph glyph-name="onequarter" unicode="&#xbe;" horiz-adv-x="885" 
d="M194 668h25v-367l5 -6l71 -3v-34h-223v35l74 3l5 7v308l-99 -17v34zM626 671h61l-428 -671h-61zM763 406h47v-245h71v-47h-71v-136h-61v136h-204v44zM749 321l-138 -160h138v160z" />
    <glyph glyph-name="threequarters" unicode="&#xa9;" horiz-adv-x="886" 
d="M626 671h61l-428 -671h-61zM763 406h47v-245h71v-47h-71v-136h-61v136h-204v44zM749 321l-138 -160h138v160zM103 613v-55c-11 -7 -20 -10 -32 -10c-24 0 -41 15 -41 37c0 45 63 83 138 83c78 0 132 -42 132 -103c0 -44 -25 -74 -78 -93c59 -9 94 -46 94 -97
c0 -71 -70 -124 -165 -124c-71 0 -131 32 -131 70c0 20 18 35 41 35c8 0 14 -1 23 -4l21 -51c18 -9 29 -12 46 -12c55 0 95 37 95 88c0 44 -31 68 -88 68c-12 0 -27 -1 -39 -3v45h9c71 0 103 22 103 70c0 44 -29 71 -75 71c-20 0 -37 -5 -53 -15z" />
    <glyph glyph-name="copyright" unicode="&#xae;" horiz-adv-x="900" 
d="M455 726c207 0 380 -176 380 -387s-174 -385 -386 -385s-384 172 -384 384c0 216 173 388 390 388zM446 685c-184 0 -337 -157 -337 -347s153 -343 341 -343c187 0 341 156 341 345c0 192 -153 345 -345 345zM607 252v-125c-54 -18 -97 -25 -145 -25
c-144 0 -243 96 -243 236c0 142 99 236 249 236c44 0 84 -7 139 -23v-120h-43l-15 75c-29 16 -49 22 -78 22c-96 0 -165 -79 -165 -189c0 -107 69 -190 159 -190c24 0 47 5 86 19l13 84h43z" />
    <glyph glyph-name="registered" unicode="&#xa0;" horiz-adv-x="900" 
d="M455 726c207 0 380 -176 380 -387s-174 -385 -386 -385s-384 172 -384 384c0 216 173 388 390 388zM446 685c-184 0 -337 -157 -337 -347s153 -343 341 -343c187 0 341 156 341 345c0 192 -153 345 -345 345zM252 560h211c58 0 86 -5 109 -18c32 -19 53 -54 53 -90
c0 -58 -39 -94 -121 -114c53 -8 86 -41 101 -101c17 -61 39 -77 104 -77v-36c-31 -6 -46 -8 -62 -8c-31 0 -57 9 -79 29c-18 16 -26 31 -41 76c-26 79 -45 95 -111 95c-7 0 -14 0 -31 -1v-150l63 -7v-37h-191v36l53 7v352l-58 10v34zM385 355h24c86 0 128 27 128 82
s-45 86 -127 86c-5 0 -14 0 -25 -1v-167z" />
    <glyph glyph-name="nbspace" unicode="&#xac;" horiz-adv-x="222" 
 />
    <glyph glyph-name="logicalnot" unicode="&#xa6;" horiz-adv-x="833" 
d="M124 419h585v-245h-56v188h-529v57z" />
    <glyph glyph-name="brokenbar" unicode="&#xb5;" 
d="M219 699h62v-370h-62v370zM219 199h62v-370h-62v370z" />
    <glyph glyph-name="mu" horiz-adv-x="547" 
d="M443 432l-56 -259c-8 -39 -10 -50 -10 -67c0 -31 18 -53 45 -53c37 0 61 26 79 87c5 15 10 22 17 22c8 0 13 -7 13 -17c0 -21 -11 -59 -26 -86c-23 -44 -60 -68 -103 -68c-51 0 -77 35 -76 104c-33 -74 -75 -106 -137 -106c-64 0 -97 32 -109 105
c-14 -78 -16 -88 -25 -165c-15 -113 -23 -133 -55 -133c-24 0 -39 17 -39 43c0 16 5 39 25 110c26 93 41 151 58 232l53 251h72l-51 -240c-4 -16 -6 -39 -6 -54c0 -55 28 -86 78 -86c64 0 107 46 126 131l54 249h73z" />
    </font>
</defs>
</svg>
